<?xml version="1.0" standalone="no"?>
<!DOCTYPE svg PUBLIC "-//W3C//DTD SVG 1.1//EN" "http://www.w3.org/Graphics/SVG/1.1/DTD/svg11.dtd" >
<svg xmlns="http://www.w3.org/2000/svg" xmlns:xlink="http://www.w3.org/1999/xlink" version="1.1">
<metadata></metadata>
<defs>
<font id="pantonextralight" horiz-adv-x="1284" >
<font-face units-per-em="2048" ascent="1516" descent="-532" />
<missing-glyph horiz-adv-x="509" />
<glyph unicode="&#xfb01;" horiz-adv-x="1122" d="M956 1516q15 0 15 -17v-20q0 -15 -15 -15h-301q-102 0 -164.5 -14.5t-104 -54t-57.5 -103.5t-16 -168v-77h643q15 0 15 -15v-1018q0 -14 -15 -14h-26q-15 0 -15 14v981h-602v-981q0 -14 -16 -14h-25q-14 0 -14 14v981h-233q-15 0 -15 15v22q0 15 15 15h233v77 q0 225 86.5 308.5t310.5 83.5h301z" />
<glyph unicode="&#xfb02;" horiz-adv-x="1046" d="M872 1516q15 0 15 -15v-1487q0 -14 -15 -14h-24q-17 0 -17 14v1450h-176q-102 0 -164.5 -14.5t-104 -54t-57.5 -103.5t-16 -168v-77h299q15 0 15 -15v-22q0 -15 -15 -15h-299v-981q0 -14 -16 -14h-25q-14 0 -14 14v981h-233q-15 0 -15 15v22q0 15 15 15h233v77 q0 225 86.5 308.5t310.5 83.5h217z" />
<glyph horiz-adv-x="0" />
<glyph horiz-adv-x="682" />
<glyph unicode=" "  horiz-adv-x="509" />
<glyph unicode="&#x09;" horiz-adv-x="509" />
<glyph unicode="&#xa0;" horiz-adv-x="509" />
<glyph unicode="!" horiz-adv-x="364" d="M199 1516q17 0 14 -15l-8 -1200q0 -14 -15 -14h-14q-9 0 -12.5 2.5t-3.5 11.5l-8 1200q0 15 16 15h31zM188 82q23 0 31 -8.5t8 -32.5v-10q0 -23 -8 -31t-31 -8h-10q-24 0 -31.5 7.5t-7.5 31.5v10q0 24 8 32.5t31 8.5h10z" />
<glyph unicode="&#x22;" horiz-adv-x="516" d="M186 1018q0 -8 -2.5 -10t-11.5 -2h-14q-15 0 -15 12v422q0 14 15 14h28q9 0 12 -2.5t3 -11.5zM367 1018q0 -12 -15 -12h-14q-9 0 -11.5 2t-2.5 10v422q0 9 2.5 11.5t11.5 2.5h29q8 0 11 -2.5t3 -11.5z" />
<glyph unicode="#" horiz-adv-x="1341" d="M1251 946q16 0 11 -16l-7 -25q-5 -12 -20 -12h-256l-121 -412h254q15 0 12 -16l-8 -25q-5 -12 -20 -12h-254l-123 -414q-8 -14 -23 -14h-26q-16 0 -13 14l125 414h-383l-125 -414q-3 -14 -18 -14h-29q-16 0 -10 14l123 414h-250q-18 0 -12 14l8 25q3 14 20 14h250 l123 412h-252q-16 0 -10 14l6 25q6 14 23 14h250l106 354q3 17 19 17h28q16 0 10 -17l-106 -354h383l106 354q3 10 6.5 13.5t12.5 3.5h26q21 0 15 -17l-107 -354h256zM539 893l-125 -412h383l125 412h-383z" />
<glyph unicode="$" horiz-adv-x="1206" d="M604 1618q17 0 17 -14v-154q124 -6 212.5 -48t145 -109t111.5 -177q9 -18 -9 -24l-22 -11q-16 -5 -25 9q-40 81 -78.5 133.5t-92 93.5t-124.5 59.5t-166 18.5q-195 0 -292 -87.5t-97 -254.5q0 -41 8 -75t20 -60t33.5 -47.5t42 -35.5t53 -26t58 -19t66 -13.5t67.5 -9.5 l72 -8q7 -1 10 -1q76 -8 119.5 -14.5t109 -22t103.5 -39.5t77 -61.5t57 -94.5t18 -131q0 -383 -477 -389v-156q0 -14 -17 -14h-24q-17 0 -17 14v154q-127 6 -219.5 54t-149 122.5t-102.5 188.5q-8 16 10 24l21 8q16 5 24 -10q35 -83 72.5 -140t90.5 -102.5t126 -67.5 t168 -22q434 0 434 334q0 54 -12.5 97t-31.5 72t-52.5 51.5t-64 35.5t-78 23t-83.5 15t-91 11q-13 1 -19 2q-50 5 -80 9t-76.5 11.5t-75.5 16t-67 23t-61.5 32t-49.5 43t-40 56t-23.5 71.5t-9.5 89q0 190 111 293t329 106v154q0 14 17 14h24z" />
<glyph unicode="%" horiz-adv-x="1650" d="M82 1186q0 140 80.5 219.5t230.5 79.5t231 -79.5t81 -219.5v-154q0 -140 -81 -218.5t-231 -78.5t-230.5 78.5t-80.5 218.5v154zM1372 1454q23 0 8 -18l-1044 -1422q-9 -10 -14 -12t-21 -2h-20q-11 0 -14 5t3 13l1047 1422q7 10 12.5 12t18.5 2h24zM653 1184 q0 119 -67.5 185.5t-192.5 66.5q-126 0 -193 -66t-67 -186v-150q0 -118 67 -184t193 -66q125 0 192.5 66t67.5 184v150zM946 420q0 140 80.5 219.5t230.5 79.5t231 -79.5t81 -219.5v-154q0 -140 -81 -218.5t-231 -78.5t-230.5 78.5t-80.5 218.5v154zM1518 418 q0 119 -67.5 185.5t-193.5 66.5q-125 0 -192.5 -67t-67.5 -185v-150q0 -118 67.5 -184t192.5 -66q126 0 193.5 66t67.5 184v150z" />
<glyph unicode="&#x26;" horiz-adv-x="1327" d="M219 1149q0 136 97.5 235t252.5 99q150 0 249.5 -99t99.5 -233q0 -76 -21.5 -133t-71 -102.5t-113 -80.5t-163.5 -75l-21 -10l463 -439l154 146q11 11 22 0l17 -19q10 -10 0 -20l-154 -146l266 -256q16 -16 -8 -16h-35q-16 0 -28 12l-234 224q-124 -112 -216.5 -170.5 t-158.5 -76.5t-151 -18q-154 0 -263.5 107.5t-109.5 265.5q0 71 19.5 130t49.5 100.5t78.5 79t92.5 61t106 51.5q-48 46 -79.5 81t-67.5 85t-54 104.5t-18 112.5zM862 1151q0 113 -83 197t-210 84q-129 0 -211 -84.5t-82 -198.5q0 -55 17 -104.5t54.5 -98t65 -77.5t79.5 -78 l32 14q150 65 201 97q110 71 131 181q6 32 6 68zM477 727q-62 -26 -106 -49t-88.5 -57t-71.5 -71.5t-44 -90.5t-17 -117q0 -132 93.5 -224.5t223.5 -92.5q113 0 215 49.5t270 199.5z" />
<glyph unicode="'" horiz-adv-x="335" d="M186 1018q0 -8 -2.5 -10t-11.5 -2h-14q-15 0 -15 12v422q0 14 15 14h28q9 0 12 -2.5t3 -11.5z" />
<glyph unicode="(" horiz-adv-x="473" d="M131 1251q0 120 34.5 207t94.5 142.5t156 99.5q14 8 20 -8l10 -21q3 -7 2 -11.5t-10 -8.5q-128 -60 -190 -151t-62 -247v-1052q0 -156 62 -247t190 -151q15 -8 8 -20l-10 -21q-6 -16 -20 -8q-96 44 -156 99.5t-94.5 142.5t-34.5 207v1048z" />
<glyph unicode=")" horiz-adv-x="473" d="M37 1692q9 15 20 8q145 -66 215 -169t70 -280v-1048q0 -177 -70 -280t-215 -169q-11 -7 -20 8l-10 21q-5 12 8 20q128 60 190 151t62 247v1052q0 156 -62 247t-190 151q-13 8 -8 20z" />
<glyph unicode="*" horiz-adv-x="804" d="M414 1378q13 0 10 -12l-8 -246l231 84q17 3 19 -6l6 -24q7 -14 -8 -17l-238 -63l152 -197q9 -9 -3 -18l-18 -15q-7 -5 -10.5 -4t-7.5 8l-138 207l-139 -205q-8 -13 -18 -6l-19 17q-14 10 -2 16l154 197l-234 65q-16 3 -12 17l8 22q4 11 19 8l229 -86l-8 246q-3 12 10 12 h25z" />
<glyph unicode="+" horiz-adv-x="1200" d="M1067 696q16 0 16 -16v-21q0 -16 -16 -16h-440v-440q0 -17 -17 -17h-20q-17 0 -17 17v440h-440q-16 0 -16 16v21q0 16 16 16h440v441q0 16 17 16h20q17 0 17 -16v-441h440z" />
<glyph unicode="," horiz-adv-x="307" d="M82 -233q-6 -15 -21 -15h-10q-8 0 -10.5 2.5t-1.5 9.5l84 310q3 13 8.5 16.5t18.5 3.5h22q27 0 18 -20z" />
<glyph unicode="-" horiz-adv-x="878" d="M729 571q16 0 16 -16v-23q0 -16 -16 -16h-577q-17 0 -17 16v23q0 16 17 16h577z" />
<glyph unicode="." horiz-adv-x="311" d="M160 82q23 0 32 -9t9 -32v-10q0 -23 -8.5 -31t-32.5 -8h-10q-24 0 -31.5 7.5t-7.5 31.5v10q0 24 8 32.5t31 8.5h10z" />
<glyph unicode="/" horiz-adv-x="782" d="M135 -109q-6 -14 -22 -14h-27q-17 0 -10 14l573 1549q6 14 21 14h28q8 0 11 -4t0 -10z" />
<glyph unicode="0" horiz-adv-x="1267" d="M127 1024q0 213 133.5 336t374.5 123q239 0 372.5 -123t133.5 -336v-592q0 -215 -133 -338t-373 -123q-241 0 -374.5 123t-133.5 338v592zM1079 1024q0 188 -116 295.5t-328 107.5q-213 0 -330 -107.5t-117 -295.5v-592q0 -190 116.5 -297.5t330.5 -107.5 q212 0 328 107.5t116 297.5v592z" />
<glyph unicode="1" horiz-adv-x="913" d="M700 1454q17 0 17 -16v-1422q0 -16 -17 -16h-26q-17 0 -17 16v1366l-553 -307q-15 -9 -22 6l-14 23q-8 13 6 20l581 322q11 8 23 8h22z" />
<glyph unicode="2" horiz-adv-x="1191" d="M115 1153q73 167 198 248.5t322 81.5q196 0 320 -122.5t124 -299.5q0 -91 -30.5 -164.5t-64.5 -118t-116.5 -92t-127 -66.5t-155.5 -62q-8 -3 -12 -5q-55 -21 -88 -34.5t-80.5 -36t-76 -42t-61.5 -48.5t-51 -60t-30 -72t-12 -88v-117h887q16 0 16 -16v-23q0 -16 -16 -16 h-932q-16 0 -16 18v146q0 44 8.5 83.5t20.5 71t35.5 61t44.5 51.5t56.5 45t61 37.5t69.5 34t72 30.5t76 30q174 67 235 99q156 84 202 209q24 64 24 143q0 155 -107.5 261.5t-275.5 106.5q-175 0 -285.5 -73t-177.5 -224q-6 -16 -20 -10l-27 13q-15 6 -10 20z" />
<glyph unicode="3" horiz-adv-x="1204" d="M1053 1081q0 -114 -50 -204t-153 -125q121 -35 183.5 -129t62.5 -232q0 -200 -117 -310t-358 -110q-156 0 -260.5 44.5t-161.5 122.5t-93 202q-5 16 13 22l22 9q17 6 23 -11q35 -116 85 -185.5t141 -108.5t231 -39q211 0 313 95t102 269q0 150 -84 239t-239 89h-369 q-16 0 -16 16v23q0 16 16 16h365q144 0 215 87.5t71 217.5q0 169 -93.5 258.5t-278.5 89.5q-198 0 -297 -75.5t-150 -245.5q-5 -16 -22 -10l-23 6q-17 6 -12 22q53 185 167.5 272t336.5 87q213 0 321.5 -105t108.5 -297z" />
<glyph unicode="4" horiz-adv-x="1214" d="M1137 498q16 0 16 -17v-22q0 -17 -16 -17h-232v-426q0 -16 -16 -16h-25q-16 0 -16 16v426h-776q-17 0 -17 17v16q0 15 6 23l777 970q8 11 22 11h27q18 0 18 -17v-964h232zM848 1393l-719 -895h719v895z" />
<glyph unicode="5" horiz-adv-x="1181" d="M1020 1454q16 0 16 -16v-23q0 -16 -16 -16h-748l-53 -549h414q113 0 201 -33.5t142.5 -93t82.5 -136.5t28 -167q0 -92 -33 -173.5t-93 -143.5t-151 -98t-200 -36q-404 0 -516 316q-5 16 6 20l29 12q17 3 21 -12q98 -280 458 -280q96 0 176 31.5t132.5 85.5t81 125.5 t28.5 152.5q0 162 -102 267.5t-293 105.5h-453q-25 0 -22 26l61 602q1 20 9 26.5t26 6.5h768z" />
<glyph unicode="6" horiz-adv-x="1249" d="M186 737q35 16 86 32t160.5 35t222.5 19q250 0 371 -105t121 -321q0 -200 -136 -313t-374 -113q-248 0 -380 133.5t-132 370.5v504q0 248 130.5 376t381.5 128q191 0 310 -77t177 -228q8 -15 -10 -21l-24 -10q-15 -5 -21 12q-109 268 -432 268q-222 0 -336.5 -113 t-114.5 -335v-242zM186 475q0 -212 115.5 -330t335.5 -118q214 0 331 96t117 274q0 188 -105 279.5t-327 91.5q-116 0 -228.5 -21t-158.5 -37t-80 -32v-203z" />
<glyph unicode="7" horiz-adv-x="1030" d="M993 1454q17 0 17 -16v-17q0 -7 -6 -22l-607 -1385q-5 -9 -10 -11.5t-18 -2.5h-29q-14 0 -8 16l608 1383h-864q-17 0 -17 16v23q0 16 17 16h917z" />
<glyph unicode="8" horiz-adv-x="1241" d="M150 1124q0 173 124.5 266t346.5 93q233 0 353 -90.5t120 -264.5q0 -78 -26 -142.5t-63 -104.5t-88.5 -72t-91.5 -46.5t-82 -25.5q70 -21 120.5 -40.5t105 -52t88.5 -71.5t56 -97t22 -130q0 -177 -123.5 -276t-390.5 -99q-515 0 -515 361q0 82 30.5 151t73.5 112 t103 77.5t103.5 50t89.5 27.5q-63 20 -110.5 40.5t-96 52t-79.5 69t-50.5 92t-19.5 120.5zM1034 1124q0 150 -105 228t-308 78q-195 0 -303.5 -79t-108.5 -227q0 -39 8.5 -73.5t20 -61t35 -51.5t43 -42t55 -34.5t59 -28t67.5 -24.5t69 -21t73 -20l20 -6q22 4 40 7.5t59 16.5 t74 29t72.5 45t66 64t45 87t18.5 113zM1073 344q0 59 -15 106.5t-45.5 81.5t-68 60.5t-90 47.5t-104 37t-117.5 35q-31 8 -47 13q-21 -4 -42 -8.5t-65.5 -19t-81.5 -32t-81.5 -49.5t-75 -69.5t-51.5 -93t-21 -119.5q0 -150 107 -229.5t346 -79.5q452 0 452 319z" />
<glyph unicode="9" horiz-adv-x="1249" d="M1065 717q-38 -16 -88 -32t-159.5 -35t-221.5 -19q-251 0 -371.5 105t-120.5 321q0 201 135 313.5t375 112.5q248 0 379 -133.5t131 -370.5v-504q0 -249 -129.5 -376.5t-380.5 -127.5q-192 0 -311.5 77t-177.5 228q-5 15 10 21l27 10q12 5 20 -12q109 -268 432 -268 q222 0 336.5 113t114.5 335v242zM1065 979q0 212 -116 330t-335 118q-215 0 -332.5 -96t-117.5 -274q0 -189 105.5 -280t328.5 -91q116 0 228.5 21t158.5 37t80 32v203z" />
<glyph unicode=":" horiz-adv-x="358" d="M184 981q23 0 31 -8.5t8 -32.5v-10q0 -23 -8 -31t-31 -8h-10q-24 0 -31.5 7.5t-7.5 31.5v10q0 24 8 32.5t31 8.5h10zM184 82q23 0 31 -8.5t8 -32.5v-10q0 -23 -8 -31t-31 -8h-10q-24 0 -31.5 7.5t-7.5 31.5v10q0 24 8 32.5t31 8.5h10z" />
<glyph unicode=";" horiz-adv-x="446" d="M250 981q23 0 32 -9t9 -32v-10q0 -23 -8.5 -31t-32.5 -8h-8q-24 0 -32.5 7.5t-8.5 31.5v10q0 23 9 32t32 9h8zM164 -233q-6 -15 -19 -15h-12q-8 0 -9.5 2.5t-0.5 9.5l84 310q3 13 8 16.5t18 3.5h23q25 0 16 -20z" />
<glyph unicode="&#x3c;" horiz-adv-x="1040" d="M883 1122q20 11 20 -12v-25q0 -13 -3 -17t-15 -11l-723 -387v-2l723 -387q1 -1 3 -2q14 -18 15 -29v-25q0 -23 -20 -12l-783 424q-16 8 -16 22v17q0 13 16 24z" />
<glyph unicode="=" horiz-adv-x="1239" d="M1087 899q17 0 17 -16v-23q0 -16 -17 -16h-933q-17 0 -17 16v23q0 16 17 16h933zM1087 494q17 0 17 -15v-24q0 -15 -17 -15h-933q-17 0 -17 15v24q0 15 17 15h933z" />
<glyph unicode="&#x3e;" horiz-adv-x="1040" d="M137 1110q0 24 21 12l782 -422q16 -11 16 -24v-17q0 -14 -16 -22l-782 -424q-21 -9 -21 12v25q0 13 3.5 17.5t15.5 11.5l723 387v2l-723 389q-9 5 -11.5 7t-5 7t-2.5 14v25z" />
<glyph unicode="?" horiz-adv-x="1126" d="M70 1178q128 338 505 338q219 0 348.5 -120.5t129.5 -299.5q0 -57 -9.5 -107.5t-23 -87.5t-39 -74.5t-45 -60.5t-55.5 -52.5t-56 -43.5t-59 -41q-42 -28 -68 -47.5t-60 -53t-53 -65.5t-32.5 -78.5t-13.5 -99.5q0 -10 -4 -13.5t-13 -3.5h-20q-9 0 -13 3.5t-4 13.5 q0 63 15 116.5t35 89t58 72.5t65 57t75 52q36 24 55.5 38.5t51.5 40.5t49.5 47.5t40 54.5t34 66.5t19.5 78.5t8 96q0 158 -111.5 262t-306.5 104q-332 0 -450 -301q-5 -15 -21 -10l-24 8q-16 5 -8 21zM518 82q23 0 31 -8.5t8 -32.5v-10q0 -23 -8 -31t-31 -8h-10 q-24 0 -31.5 7.5t-7.5 31.5v10q0 24 8 32.5t31 8.5h10z" />
<glyph unicode="@" horiz-adv-x="1843" d="M106 668q0 379 215.5 597t593.5 218q259 0 444.5 -103t278.5 -285.5t93 -426.5v-140q0 -107 -30.5 -191t-82.5 -135t-115.5 -77.5t-134.5 -26.5q-100 0 -117 90q-165 -88 -387 -88q-174 0 -260 86t-86 244v330q0 160 86 247t260 87q203 0 355 -62q41 -18 55 -37t14 -61 v-709q0 -80 82 -80q60 0 113.5 22.5t98 67.5t71 120t26.5 171v142q0 231 -86 402.5t-260 268.5t-418 97q-354 0 -555.5 -205t-201.5 -563v-142q0 -361 199.5 -555t557.5 -194q48 0 97.5 3t91.5 8t79.5 11t68 12t52 11t36.5 8l14 4q12 3 12 -4v-29q0 -11 -12 -14 q-228 -57 -439 -57q-383 0 -596 207t-213 591v140zM1188 991q-49 21 -134.5 37t-185.5 16q-151 0 -225 -73.5t-74 -210.5v-328q0 -136 74 -209t225 -73q99 0 187 20.5t123 37t59 32.5v684q0 29 -9.5 42t-39.5 25z" />
<glyph unicode="A" d="M1257 16q6 -16 -12 -16h-24q-23 0 -29 14l-199 494h-704l-199 -494q-6 -14 -31 -14h-20q-11 0 -13.5 4t1.5 12l579 1432q5 16 23 16h24q19 0 25 -14zM655 1348q-9 27 -14 55h-2q-7 -39 -12 -55l-320 -789h668z" />
<glyph unicode="B" horiz-adv-x="1306" d="M774 1454q181 0 279 -93t98 -269q0 -134 -56.5 -221t-164.5 -121v-2q131 -27 201.5 -120t70.5 -245q0 -184 -104.5 -283.5t-292.5 -99.5h-615q-16 0 -16 16v1422q0 16 16 16h584zM1092 1085q0 154 -83 234t-239 80h-537v-629h537q155 0 238.5 80.5t83.5 234.5zM1139 387 q0 160 -87.5 244t-248.5 84h-570v-660h570q161 0 248.5 86t87.5 246z" />
<glyph unicode="C" horiz-adv-x="1296" d="M129 985q0 234 140 366t405 132q157 0 265 -42t171 -119.5t98 -199.5q6 -17 -12 -20l-22 -8q-18 -6 -23 10q-51 169 -159.5 246t-317.5 77q-237 0 -360.5 -116.5t-123.5 -323.5v-518q0 -206 125.5 -324t358.5 -118q145 0 242 39.5t152 110.5t89 185q6 17 21 11l24 -8 q15 -5 10 -23q-52 -187 -175.5 -279t-362.5 -92q-261 0 -403 133t-142 367v514z" />
<glyph unicode="D" horiz-adv-x="1314" d="M600 1454q283 0 438.5 -144t155.5 -397v-372q0 -253 -155.5 -397t-438.5 -144h-410q-16 0 -16 16v1422q0 16 16 16h410zM1135 913q0 229 -139 357.5t-396 128.5h-367v-1344h367q256 0 395.5 128.5t139.5 357.5v372z" />
<glyph unicode="E" horiz-adv-x="1163" d="M1032 1454q17 0 17 -16v-23q0 -16 -17 -16h-799v-633h711q17 0 17 -16v-25q0 -16 -17 -16h-711v-654h828q16 0 16 -16v-23q0 -16 -16 -16h-871q-16 0 -16 16v1422q0 16 16 16h842z" />
<glyph unicode="F" horiz-adv-x="1122" d="M1032 1454q17 0 17 -16v-23q0 -16 -17 -16h-799v-656h699q16 0 16 -16v-25q0 -16 -16 -16h-699v-670q0 -16 -16 -16h-27q-16 0 -16 16v1422q0 16 16 16h842z" />
<glyph unicode="G" horiz-adv-x="1329" d="M1200 719q19 0 19 -19v-233q0 -231 -141.5 -363.5t-401.5 -132.5q-265 0 -406 133.5t-141 368.5v512q0 234 140 366t405 132q157 0 265 -42t171 -119.5t98 -199.5q6 -17 -12 -20l-22 -8q-18 -6 -23 10q-51 169 -159.5 246t-317.5 77q-239 0 -362.5 -116.5t-123.5 -323.5 v-512q0 -211 126.5 -329.5t361.5 -118.5q232 0 357.5 117.5t125.5 324.5v193h-467q-16 0 -16 16v24q0 17 16 17h508z" />
<glyph unicode="H" horiz-adv-x="1386" d="M1198 1454q16 0 16 -16v-1422q0 -16 -16 -16h-29q-16 0 -16 16v693h-920v-693q0 -16 -16 -16h-27q-16 0 -16 16v1422q0 16 16 16h27q16 0 16 -16v-672h920v672q0 16 16 16h29z" />
<glyph unicode="I" horiz-adv-x="407" d="M174 1438q0 16 16 16h27q16 0 16 -16v-1422q0 -16 -16 -16h-27q-16 0 -16 16v1422z" />
<glyph unicode="J" horiz-adv-x="1157" d="M977 1454q16 0 16 -16v-1002q0 -217 -123.5 -342t-349.5 -125q-399 0 -471 418q-6 15 8 21l27 10q16 6 22 -12q32 -187 130 -283t284 -96q198 0 306 109.5t108 299.5v1002q0 16 16 16h27z" />
<glyph unicode="K" horiz-adv-x="1216" d="M1171 18q6 -8 3.5 -13t-11.5 -5h-24q-25 0 -33 14l-246 490q-56 110 -129.5 157.5t-204.5 47.5h-293v-693q0 -16 -16 -16h-27q-16 0 -16 16v1422q0 16 16 16h27q16 0 16 -16v-672h291q40 0 58 -2l497 676q9 14 35 14h27q24 0 10 -18l-506 -682q96 -20 158.5 -73.5 t109.5 -150.5z" />
<glyph unicode="L" horiz-adv-x="1056" d="M217 1454q16 0 16 -16v-1383h779q16 0 16 -16v-23q0 -16 -16 -16h-822q-16 0 -16 16v1422q0 16 16 16h27z" />
<glyph unicode="M" horiz-adv-x="1622" d="M1432 1454q16 0 16 -16v-1422q0 -16 -16 -16h-27q-16 0 -16 16l2 1008q0 177 8 328h-4q-53 -104 -150 -275l-399 -710q-9 -15 -23 -15h-20q-15 0 -25 15l-405 720q-86 151 -144 267h-4q6 -170 6 -330v-1008q0 -16 -16 -16h-25q-16 0 -16 16v1422q0 16 16 16h23 q17 0 25 -16l575 -1012l569 1010q8 18 27 18h23z" />
<glyph unicode="N" horiz-adv-x="1404" d="M1217 1454q16 0 16 -16v-1422q0 -16 -16 -16h-27q-14 0 -21 12l-774 1098q-29 42 -84.5 128t-81.5 122h-2q0 -42 3 -151.5t3 -170.5v-1022q0 -16 -16 -16h-27q-16 0 -16 16v1422q0 16 16 16h25q16 0 21 -10l751 -1067q34 -49 98 -144.5t93 -136.5h4q0 48 -4 169.5 t-4 189.5v985q0 14 16 14h27z" />
<glyph unicode="O" horiz-adv-x="1347" d="M129 983q0 235 141 367.5t406 132.5q261 0 402 -132.5t141 -367.5v-512q0 -235 -141 -367.5t-402 -132.5q-265 0 -406 132.5t-141 367.5v512zM1157 981q0 210 -124.5 328t-356.5 118q-235 0 -361.5 -118t-126.5 -328v-508q0 -210 126.5 -328t361.5 -118q232 0 356.5 118 t124.5 328v508z" />
<glyph unicode="P" horiz-adv-x="1259" d="M743 1454q207 0 327 -117t120 -323q0 -203 -120 -318.5t-327 -115.5h-510v-564q0 -16 -16 -16h-27q-16 0 -16 16v1422q0 16 16 16h553zM737 635q182 0 285.5 100t103.5 279q0 182 -103.5 283.5t-285.5 101.5h-504v-764h504z" />
<glyph unicode="Q" horiz-adv-x="1366" d="M1241 -74q12 -12 0 -24l-18 -15q-13 -13 -25 0l-158 189q-136 -105 -364 -105q-265 0 -406 132.5t-141 367.5v512q0 235 141 367.5t406 132.5q261 0 402 -132.5t141 -367.5v-512q0 -229 -134 -360zM188 473q0 -210 126.5 -328t361.5 -118q232 0 356.5 118t124.5 328v508 q0 210 -124.5 328t-356.5 118q-235 0 -361.5 -118t-126.5 -328v-508z" />
<glyph unicode="R" horiz-adv-x="1306" d="M782 1454q192 0 300 -105t108 -296q0 -179 -102.5 -281t-278.5 -110q64 -24 108 -68t82 -117l232 -459q11 -18 -10 -18h-25q-22 0 -33 14l-219 437q-56 110 -129 157t-203 47h-379v-639q0 -16 -16 -16h-27q-16 0 -16 16v1422q0 16 16 16h592zM1126 1053q0 166 -91.5 256 t-258.5 90h-543v-686h543q165 0 257.5 88.5t92.5 251.5z" />
<glyph unicode="S" horiz-adv-x="1269" d="M121 1085q0 184 134.5 291t369.5 107q201 0 327.5 -76.5t208.5 -243.5q8 -17 -8 -22l-25 -11q-7 -4 -11.5 -2.5t-10.5 9.5q-74 150 -187 218t-294 68q-207 0 -325 -89t-118 -247q0 -48 10 -88t31.5 -70t46 -53.5t62.5 -40.5t71 -29t82.5 -21.5t85.5 -14.5t91 -12 q66 -8 108 -14t101.5 -19.5t97 -30t79.5 -45t65.5 -64.5t39.5 -88.5t16 -117.5q0 -199 -134.5 -303.5t-397.5 -104.5q-209 0 -340.5 87.5t-208.5 275.5q-4 11 -2.5 15t12.5 9l23 9q15 5 22 -9q74 -169 193.5 -249t300.5 -80q473 0 473 348q0 43 -9 79.5t-21.5 64t-37.5 51 t-46.5 39.5t-59 29.5t-63.5 21.5t-72 16t-73 12t-77 10q-57 6 -97.5 12t-94 16.5t-90.5 24.5t-79 34t-70 47.5t-52 63t-35.5 83t-11.5 104.5z" />
<glyph unicode="T" horiz-adv-x="1075" d="M1032 1454q17 0 17 -16v-23q0 -16 -17 -16h-465v-1383q0 -16 -16 -16h-27q-16 0 -16 16v1383h-465q-16 0 -16 16v23q0 16 16 16h989z" />
<glyph unicode="U" horiz-adv-x="1388" d="M221 492q0 -218 120 -342.5t353 -124.5t352 124t119 343v946q0 16 17 16h28q17 0 17 -16v-946q0 -244 -135.5 -383.5t-397.5 -139.5q-263 0 -397.5 139t-134.5 384v946q0 16 16 16h27q16 0 16 -16v-946z" />
<glyph unicode="V" horiz-adv-x="1243" d="M1208 1454q15 0 9 -16l-560 -1422q-5 -16 -22 -16h-27q-17 0 -22 16l-559 1422q-6 16 10 16h26q24 0 27 -14l488 -1241q8 -21 22.5 -63t20.5 -58h4q5 14 19.5 55.5t23.5 63.5l485 1243q6 14 27 14h28z" />
<glyph unicode="W" horiz-adv-x="1769" d="M1708 1454q15 0 10 -16l-389 -1422q-3 -10 -8 -13t-16 -3h-25q-20 0 -25 16l-323 1135q-14 51 -45 176h-2l-49 -176l-324 -1135q-2 -16 -23 -16h-26q-21 0 -23 16l-389 1422q-3 9 -1 12.5t11 3.5h31q20 0 23 -14l319 -1174q3 -14 19 -81t24 -97h2q7 30 23.5 92t21.5 84 l326 1139q5 14 22 14h29q18 0 23 -14l325 -1143q28 -111 45 -172h2q18 71 39 170l320 1182q6 14 24 14h29z" />
<glyph unicode="X" horiz-adv-x="1228" d="M1194 23q15 -23 -6 -23h-35q-22 0 -31 14l-510 678l-508 -678q-9 -14 -28 -14h-35q-21 0 -6 23l540 714l-526 701q-5 6 -2 11t10 5h35q13 0 18 -2.5t13 -11.5l491 -654l492 654q8 9 13 11.5t18 2.5h32q9 0 12.5 -5t-1.5 -11l-527 -701z" />
<glyph unicode="Y" horiz-adv-x="1255" d="M1214 1454q9 0 11.5 -5t-0.5 -11l-568 -836v-586q0 -16 -16 -16h-27q-16 0 -16 16v588l-563 834q-5 6 -2 11t12 5h33q22 0 31 -14l520 -774l522 774q7 14 29 14h34z" />
<glyph unicode="Z" horiz-adv-x="1122" d="M1024 1454q16 0 16 -16v-21q0 -14 -6 -22l-895 -1338h912q16 0 16 -16v-25q0 -16 -16 -16h-971q-17 0 -17 16v23q0 13 11 27l891 1333h-877q-14 0 -14 16v23q0 16 14 16h936z" />
<glyph unicode="[" horiz-adv-x="505" d="M467 1753q9 0 12.5 -2.5t3.5 -11.5v-23q0 -16 -16 -16h-264v-1946h264q16 0 16 -16v-23q0 -9 -3.5 -11.5t-12.5 -2.5h-305q-15 0 -15 14v2024q0 14 15 14h305z" />
<glyph unicode="\" horiz-adv-x="782" d="M74 1440q-7 14 10 14h29q16 0 22 -14l574 -1549q7 -14 -11 -14h-30q-15 0 -21 14z" />
<glyph unicode="]" horiz-adv-x="505" d="M344 1753q16 0 16 -14v-2024q0 -14 -16 -14h-305q-9 0 -11.5 2.5t-2.5 11.5v23q0 9 2.5 12.5t11.5 3.5h264v1946h-264q-9 0 -11.5 3.5t-2.5 12.5v23q0 9 2.5 11.5t11.5 2.5h305z" />
<glyph unicode="^" horiz-adv-x="1220" d="M614 1659q14 0 21 -12l463 -562q14 -20 -8 -20h-27q-21 0 -33 14l-422 516h-6l-416 -516q-7 -10 -11.5 -12t-20.5 -2h-25q-22 0 -8 20l454 562q10 12 23 12h16z" />
<glyph unicode="_" horiz-adv-x="1050" d="M973 0q16 0 16 -16v-23q0 -16 -16 -16h-893q-17 0 -17 16v23q0 16 17 16h893z" />
<glyph unicode="`" horiz-adv-x="526" d="M72 1475q11 14 30 2l357 -226q11 -8 2 -20l-10 -12q-8 -8 -25 -2l-365 223q-17 8 -2 20z" />
<glyph unicode="a" horiz-adv-x="1038" d="M121 858q111 217 397 217q115 0 194.5 -31t120.5 -88.5t57.5 -123t16.5 -150.5v-541q0 -53 -14.5 -75t-58.5 -41q-124 -54 -316 -54q-130 0 -216 19.5t-132.5 61.5t-65 96t-18.5 133q0 166 100.5 234.5t339.5 68.5q53 0 111.5 -3.5t94 -7.5t76 -9t44.5 -5v125 q0 60 -7.5 106.5t-30 92t-59 75.5t-97 48t-142.5 18q-245 0 -346 -188q-9 -13 -20 -9l-21 9q-19 6 -8 22zM852 510q-175 27 -330 27q-209 0 -294 -58t-85 -198q0 -66 15.5 -111.5t55.5 -81t114.5 -52t187.5 -16.5q175 0 283 48q34 14 43.5 28.5t9.5 53.5v360z" />
<glyph unicode="b" horiz-adv-x="1089" d="M186 1516q15 0 15 -15v-512q191 86 389 86q385 0 385 -391v-303q0 -410 -422 -410q-190 0 -328 58q-50 22 -65 42.5t-15 69.5v1360q0 15 15 15h26zM920 682q0 342 -336 342q-191 0 -383 -90v-780q0 -35 9.5 -48t47.5 -30q129 -53 293 -53q188 0 278.5 89t90.5 269v301z " />
<glyph unicode="c" horiz-adv-x="1050" d="M113 684q0 185 109.5 288t320.5 103q183 0 280.5 -71t137.5 -211q5 -17 -9 -23l-22 -6q-15 -7 -21 8q-39 133 -123 192.5t-247 59.5q-181 0 -276 -90t-95 -248v-324q0 -158 96 -248.5t275 -90.5q158 0 247.5 64.5t126.5 201.5q5 16 21 10l24 -6q16 -6 11 -21 q-43 -152 -147 -226.5t-281 -74.5q-208 0 -318 104t-110 290v319z" />
<glyph unicode="d" horiz-adv-x="1089" d="M115 682q0 190 95.5 291.5t291.5 101.5q208 0 387 -84v510q0 15 16 15h25q16 0 16 -15v-1360q0 -50 -15.5 -70.5t-66.5 -41.5q-142 -58 -327 -58q-422 0 -422 406v305zM889 936q-165 88 -381 88q-338 0 -338 -344v-301q0 -356 369 -356q163 0 292 53q40 17 49 29t9 49 v782z" />
<glyph unicode="e" horiz-adv-x="1075" d="M109 651q0 199 111.5 311.5t324.5 112.5q212 0 324 -113.5t112 -308.5v-102q0 -35 -37 -35h-780v-151q0 -160 93 -252.5t273 -92.5q272 0 388 220q10 15 24 6l19 -10q14 -7 4 -21q-125 -244 -435 -244q-209 0 -315 105t-106 293v282zM924 655q0 172 -96 271.5t-283 99.5 t-284 -99.5t-97 -271.5v-92h760v92z" />
<glyph unicode="f" horiz-adv-x="694" d="M655 1516q15 0 15 -17v-22q0 -15 -15 -15q-103 0 -165.5 -14t-104 -53t-57 -103t-15.5 -168v-77h349q14 0 14 -15v-22q0 -15 -14 -15h-349v-981q0 -14 -16 -14h-25q-14 0 -14 14v981h-233q-15 0 -15 15v22q0 15 15 15h233v77q0 151 37 235t118.5 120t227.5 37h14z" />
<glyph unicode="g" horiz-adv-x="1089" d="M115 668q0 407 424 407q189 0 325 -57q50 -20 65 -41t15 -72v-989q0 -442 -418 -442q-78 0 -141.5 17.5t-109.5 51t-79 75t-59 95.5q-11 17 6 25l17 8q14 8 24 -6q50 -103 129 -158t213 -55q363 0 363 387v147q-60 -29 -162 -56.5t-225 -27.5q-387 0 -387 392v299z M831 971q-129 53 -290 53q-189 0 -280 -89t-91 -269v-297q0 -340 336 -340q89 0 175.5 18t130.5 35t77 35v776q0 36 -9.5 48t-48.5 30z" />
<glyph unicode="h" horiz-adv-x="1122" d="M193 1516q14 0 14 -15v-506q174 80 385 80q389 0 389 -391v-670q0 -14 -14 -14h-25q-16 0 -16 14v666q0 171 -82 257.5t-256 86.5q-210 0 -381 -84v-926q0 -14 -14 -14h-27q-14 0 -14 14v1487q0 15 14 15h27z" />
<glyph unicode="i" horiz-adv-x="358" d="M182 1407q22 0 30.5 -8.5t8.5 -30.5v-8q0 -21 -8.5 -29t-30.5 -8h-8q-22 0 -29.5 7t-7.5 30v8q0 22 8 30.5t29 8.5h8zM190 1047q17 0 17 -15v-1018q0 -14 -17 -14h-24q-14 0 -14 14v1018q0 15 14 15h24z" />
<glyph unicode="j" horiz-adv-x="358" d="M184 1407q20 0 28.5 -8.5t8.5 -30.5v-8q0 -21 -8 -29t-29 -8h-10q-22 0 -29.5 7t-7.5 30v8q0 22 8 30.5t29 8.5h10zM190 1047q17 0 17 -15v-1052q0 -113 -19 -193.5t-63.5 -140t-121 -88.5t-187.5 -29q-15 0 -15 16v23q0 14 15 14q189 0 262.5 97.5t73.5 300.5v1052 q0 15 14 15h24z" />
<glyph unicode="k" horiz-adv-x="1011" d="M961 16q10 -16 -9 -16h-24q-20 0 -27 12l-178 359q-38 76 -89.5 109.5t-139.5 33.5h-287v-498q0 -16 -17 -16h-24q-14 0 -14 16v1483q0 17 14 17h24q17 0 17 -17v-934h282h23l371 469q6 9 11 11t19 2h23q23 0 10 -19l-377 -473q73 -10 120.5 -49t82.5 -111z" />
<glyph unicode="l" horiz-adv-x="372" d="M215 14q0 -14 -16 -14h-25q-16 0 -16 14v1487q0 15 16 15h25q16 0 16 -15v-1487z" />
<glyph unicode="m" horiz-adv-x="1658" d="M786 973q170 102 377 102q181 0 267 -93t86 -280v-688q0 -14 -15 -14h-26q-15 0 -15 14v684q0 168 -72.5 247t-228.5 79q-82 0 -162 -21t-116 -39t-64 -36q53 -82 53 -226v-688q0 -14 -14 -14h-27q-14 0 -14 14v684q0 166 -76.5 246t-232.5 80q-149 0 -256 -55 q-31 -16 -40 -34t-9 -48v-873q0 -14 -15 -14h-26q-15 0 -15 14v885q0 45 16.5 70t59.5 47q126 59 289 59q188 0 276 -102z" />
<glyph unicode="n" horiz-adv-x="1116" d="M221 1010q159 65 365 65q198 0 293.5 -101t95.5 -290v-670q0 -14 -14 -14h-25q-16 0 -16 14v666q0 171 -82 257.5t-256 86.5q-198 0 -332 -61q-31 -12 -40 -28.5t-9 -45.5v-875q0 -14 -15 -14h-26q-15 0 -15 14v885q0 45 15.5 68t60.5 43z" />
<glyph unicode="o" horiz-adv-x="1097" d="M117 727q0 160 118 254t314 94q197 0 314.5 -93.5t117.5 -254.5v-408q0 -161 -117.5 -254.5t-314.5 -93.5q-196 0 -314 94t-118 254v408zM926 729q0 134 -103.5 214.5t-273.5 80.5q-169 0 -273 -80.5t-104 -214.5v-412q0 -134 104 -214t273 -80q170 0 273.5 80t103.5 214 v412z" />
<glyph unicode="p" horiz-adv-x="1089" d="M227 1018q136 57 330 57q418 0 418 -405v-305q0 -191 -95.5 -292.5t-293.5 -101.5q-205 0 -385 99v-506q0 -15 -15 -15h-26q-15 0 -15 15v1341q0 50 16 71t66 42zM920 668q0 178 -90.5 267t-278.5 89q-169 0 -293 -53q-39 -18 -48 -30t-9 -48v-766q35 -21 80.5 -41 t132 -41.5t170.5 -21.5q336 0 336 342v303z" />
<glyph unicode="q" horiz-adv-x="1089" d="M539 1075q189 0 325 -57q50 -21 66 -42t16 -71v-1341q0 -15 -16 -15h-25q-16 0 -16 15v506q-36 -20 -81 -39t-132.5 -39.5t-173.5 -20.5q-387 0 -387 389v308q0 407 424 407zM170 362q0 -339 336 -339q84 0 170.5 21.5t132 41.5t80.5 41v766q0 36 -9.5 48t-48.5 30 q-120 53 -290 53q-189 0 -280 -89t-91 -269v-304z" />
<glyph unicode="r" horiz-adv-x="684" d="M582 1075h63q14 0 14 -14v-21q0 -16 -14 -16h-63q-190 0 -332 -59q-31 -14 -40 -31t-9 -47v-873q0 -14 -15 -14h-26q-15 0 -15 14v885q0 45 15.5 68t60.5 43q159 65 361 65z" />
<glyph unicode="s" horiz-adv-x="1003" d="M111 788q0 138 97.5 212.5t285.5 74.5q170 0 265.5 -57.5t137.5 -165.5q6 -18 -6 -23l-19 -10q-11 -3 -14 -2t-8 10q-26 64 -65.5 105.5t-111.5 66.5t-177 25q-163 0 -246.5 -59.5t-83.5 -176.5q0 -44 10 -78.5t25.5 -58.5t42.5 -41t53.5 -27.5t66.5 -17.5t73.5 -11 t81.5 -8q9 -1 13 -1q69 -6 119 -15t102.5 -28.5t85 -48.5t53.5 -77.5t21 -113.5q0 -139 -98.5 -215t-300.5 -76q-166 0 -273 61t-159 199q-7 17 10 23l21 6q13 5 18 -8q44 -123 139 -176t244 -53q344 0 344 237q0 54 -18 94t-45.5 64t-74 40t-90.5 23.5t-108 12.5 q-169 16 -236 38q-132 43 -164 161q-11 43 -11 95z" />
<glyph unicode="t" horiz-adv-x="684" d="M299 1292q16 0 16 -14v-231h344q17 0 17 -15v-22q0 -15 -17 -15h-344v-630q0 -107 15.5 -171.5t57 -103t103.5 -52t166 -13.5q15 0 15 -15v-22q0 -17 -15 -17q-228 -2 -313.5 79.5t-85.5 311.5v633h-238q-14 0 -14 15v22q0 15 14 15h238v231q0 14 16 14h25z" />
<glyph unicode="u" horiz-adv-x="1116" d="M956 1047q15 0 15 -15v-882q0 -47 -15.5 -70t-60.5 -43q-162 -66 -365 -66q-198 0 -293.5 101t-95.5 290v670q0 15 15 15h26q15 0 15 -15v-665q0 -171 82.5 -257.5t257.5 -86.5q187 0 329 59q31 14 40 31.5t9 46.5v872q0 15 17 15h24z" />
<glyph unicode="v" horiz-adv-x="1011" d="M965 1047q19 0 12 -17l-438 -1024q-7 -14 -25 -14h-14q-18 0 -25 14l-438 1022q-8 19 12 19h23q11 0 15 -3.5t9 -13.5l353 -825q45 -115 57 -144h4q8 20 27 69.5t28 72.5l353 827q6 17 24 17h23z" />
<glyph unicode="w" horiz-adv-x="1490" d="M1427 1047q19 0 13 -19l-328 -1022q-3 -16 -18 -16h-23q-17 0 -22 16l-261 787q-9 30 -24.5 80t-18.5 61h-4q-3 -11 -18.5 -61t-24.5 -80l-258 -787q-3 -8 -6 -11.5t-6 -4t-10 -0.5h-21q-7 0 -10 0.5t-5.5 4t-4.5 11.5l-326 1022q-6 19 12 19h23q22 0 25 -17l245 -780 q7 -22 25 -86.5t27 -93.5h4q6 20 25 85t30 99l246 741q3 10 7 12.5t17 2.5h17q17 0 22 -15l244 -733q13 -37 32.5 -104t26.5 -88h4q30 100 54 190l245 770q2 17 25 17h20z" />
<glyph unicode="x" horiz-adv-x="964" d="M895 1047q20 0 8 -15l-385 -495l410 -523q8 -14 -10 -14h-33q-10 0 -13 2t-10 10l-379 486l-381 -486q-10 -12 -26 -12h-29q-16 0 -8 14l410 525l-392 493q-5 6 -1 10.5t14 4.5h28q18 0 25 -13l360 -456l357 456q10 13 24 13h31z" />
<glyph unicode="y" horiz-adv-x="1122" d="M956 1047q15 0 15 -15v-1116q0 -442 -422 -442q-278 0 -393 239q-10 15 6 25l18 8q14 9 25 -6q48 -102 129 -157.5t215 -55.5q366 0 366 387v141q-66 -25 -95.5 -35.5t-115 -26.5t-174.5 -16q-198 0 -293.5 102t-95.5 292v661q0 15 15 15h26q15 0 15 -15v-659 q0 -171 82.5 -257.5t257.5 -86.5q82 0 164.5 16t121 29t92.5 35v923q0 15 17 15h24z" />
<glyph unicode="z" horiz-adv-x="905" d="M829 51q13 0 13 -14v-23q0 -14 -13 -14h-751q-15 0 -15 14v23q0 9 9 20l692 938h-678q-14 0 -14 17v20q0 15 14 15h733q15 0 15 -15v-20q0 -13 -9 -25l-690 -936h694z" />
<glyph unicode="{" horiz-adv-x="608" d="M573 1753q15 0 15 -14v-23q0 -16 -15 -16h-88q-102 0 -145 -49.5t-43 -153.5v-530q0 -192 -133 -240q70 -24 101.5 -83.5t31.5 -158.5v-530q0 -104 43 -153.5t145 -49.5h88q15 0 15 -16v-23q0 -14 -15 -14h-88q-132 0 -187.5 61t-55.5 193v528q0 111 -46 164t-153 53h-23 q-14 0 -14 15v26q0 15 14 15h23q107 0 153 53.5t46 163.5v528q0 132 55.5 193t187.5 61h88z" />
<glyph unicode="|" horiz-adv-x="346" d="M184 1753q15 0 15 -14v-2026q0 -14 -15 -14h-22q-15 0 -15 14v2026q0 14 15 14h22z" />
<glyph unicode="}" horiz-adv-x="608" d="M123 1753q132 0 188 -61t56 -193v-528q0 -110 45.5 -163.5t152.5 -53.5h23q14 0 14 -15v-26q0 -15 -14 -15h-23q-107 0 -152.5 -53t-45.5 -164v-528q0 -132 -56 -193t-188 -61h-88q-15 0 -15 14v23q0 16 15 16h88q102 0 145 49.5t43 153.5v530q0 99 31.5 158.5 t101.5 83.5q-70 24 -101.5 83t-31.5 157v530q0 104 -43 153.5t-145 49.5h-88q-15 0 -15 16v23q0 14 15 14h88z" />
<glyph unicode="~" horiz-adv-x="1155" d="M145 629q57 51 112 76.5t126 25.5q68 0 134.5 -23.5t130 -47t124.5 -23.5q110 0 205 88q11 9 22 -2l15 -14q13 -13 0 -23q-113 -102 -238 -102q-69 0 -135.5 23.5t-130 47t-125.5 23.5q-59 0 -105 -21.5t-96 -66.5q-11 -11 -22 0l-17 16q-13 10 0 23z" />
<glyph unicode="&#xa1;" horiz-adv-x="342" d="M168 958q-23 0 -32 9t-9 32v9q0 24 8.5 32.5t32.5 8.5h8q23 0 32 -9t9 -32v-9q0 -23 -9 -32t-32 -9h-8zM156 -475q-17 0 -17 14l11 1198q0 17 14 17h14q15 0 15 -17l10 -1198q0 -14 -17 -14h-30z" />
<glyph unicode="&#xa2;" horiz-adv-x="1091" d="M969 293q13 -5 8 -21q-42 -146 -138.5 -220.5t-260.5 -78.5v-131q0 -14 -17 -14h-26q-15 0 -15 14v129q-193 7 -296 111t-103 283v319q0 177 102 280.5t297 110.5v160q0 14 15 14h26q17 0 17 -14v-160q172 -6 262.5 -75.5t130.5 -206.5q5 -17 -10 -23l-23 -6 q-14 -7 -20 8q-39 133 -123 192.5t-246 59.5q-182 0 -276.5 -89.5t-94.5 -248.5v-324q0 -158 96 -248.5t275 -90.5q157 0 246.5 65t128.5 201q5 15 20 10z" />
<glyph unicode="&#xa3;" horiz-adv-x="1282" d="M309 1122q0 78 23.5 142t71.5 113.5t129 77.5t188 28q170 0 275.5 -72.5t164.5 -247.5q5 -15 -10 -20l-25 -10q-14 -5 -22 12q-55 158 -144 220t-237 62q-182 0 -267 -84t-85 -223v-399h592q16 0 16 -16v-21q0 -16 -16 -16h-592v-389q0 -150 -103 -224v-2q32 0 106 1 t115 1h658q16 0 16 -16v-23q0 -16 -16 -16h-1055q-9 0 -11.5 3.5t-2.5 12.5v25q0 14 12 14h49q45 1 79 22.5t53 55.5t28.5 71t9.5 75v389h-190q-17 0 -17 16v21q0 16 17 16h190v401z" />
<glyph unicode="&#xa4;" horiz-adv-x="1208" d="M1071 266q11 -11 0 -22l-16 -19q-11 -9 -23 0l-119 119q-131 -121 -309 -121q-170 0 -305 115l-119 -117q-9 -13 -22 0l-17 17q-11 11 0 22l119 119q-121 131 -121 309q0 177 117 307l-119 117q-11 12 0 23l19 18q11 11 22 0l117 -119q132 119 309 119q172 0 303 -115 l119 119q12 9 23 0l16 -18q11 -11 0 -23l-117 -117q121 -134 121 -311q0 -170 -115 -305zM604 1098q-172 0 -290.5 -118t-118.5 -290q0 -171 119 -291t290 -120q170 0 289 120t119 291t-118.5 289.5t-289.5 118.5z" />
<glyph unicode="&#xa5;" horiz-adv-x="1277" d="M1204 1454q18 0 10 -16l-520 -758h330q14 0 14 -14v-19q0 -14 -14 -14h-356v-244h356q14 0 14 -14v-19q0 -14 -14 -14h-354v-326q0 -16 -17 -16h-28q-17 0 -17 16v326h-358q-14 0 -14 14v19q0 14 14 14h358v244h-358q-14 0 -14 14v19q0 14 14 14h334l-518 758 q-8 16 10 16h33q21 0 28 -14l504 -740l502 740q9 14 31 14h30z" />
<glyph unicode="&#xa6;" horiz-adv-x="366" d="M195 1753q14 0 14 -14v-842q0 -14 -14 -14h-23q-16 0 -16 14v842q0 14 16 14h23zM195 571q14 0 14 -14v-842q0 -14 -14 -14h-23q-16 0 -16 14v842q0 14 16 14h23z" />
<glyph unicode="&#xa7;" horiz-adv-x="1202" d="M127 1149q0 160 113 254t346 94q375 0 497 -354q6 -15 -12 -21l-20 -10q-16 -7 -25 10q-111 318 -440 318q-205 0 -301.5 -77.5t-96.5 -213.5q0 -51 13.5 -92.5t32.5 -69.5t56 -49.5t66 -34t82 -22.5t85.5 -14.5t92.5 -10.5q77 -8 135.5 -19t122.5 -35t104.5 -58.5 t67.5 -91.5t27 -132q0 -210 -219 -325q112 -32 175 -104t63 -204q0 -158 -121 -252t-359 -94q-382 0 -503 357q-5 14 12 20l22 8q18 6 23 -10q109 -319 446 -319q210 0 315 78.5t105 211.5q0 52 -12.5 93t-34 69t-54.5 49.5t-67.5 34t-80.5 21.5t-86.5 14.5t-92.5 10.5 q-8 1 -12 1q-51 5 -87.5 10t-84 13.5t-81 20.5t-70.5 29.5t-62 42t-46.5 55.5t-31.5 73t-10 92q0 72 25 131.5t66.5 97.5t78.5 60.5t78 38.5q-114 32 -177 103.5t-63 201.5zM606 801q-112 11 -166 22q-24 -7 -47 -15.5t-65 -33t-71.5 -55.5t-53 -83.5t-23.5 -115.5 q0 -48 12.5 -86.5t32 -65.5t53.5 -48.5t65.5 -34t80 -23t85 -15.5t91.5 -11q106 -7 182 -23q18 8 32.5 15.5t45.5 26t54.5 42t48 55t38 74t13.5 90.5q0 64 -24 112.5t-61 78t-93.5 50t-109 29.5t-120.5 15z" />
<glyph unicode="&#xa8;" horiz-adv-x="899" d="M254 1370q21 0 28 -7t7 -26v-14q0 -20 -6.5 -26.5t-28.5 -6.5h-12q-19 0 -26 6.5t-7 26.5v14q0 19 7 26t26 7h12zM641 1370q19 0 27 -7.5t8 -25.5v-14q0 -20 -7.5 -26.5t-27.5 -6.5h-10q-22 0 -28.5 6.5t-6.5 26.5v14q0 19 7 26t28 7h10z" />
<glyph unicode="&#xa9;" horiz-adv-x="1667" d="M100 719q0 154 57 290.5t154.5 234t234 154t290.5 56.5q152 0 287.5 -56.5t233 -154t154 -234t56.5 -290.5q0 -153 -56.5 -289t-154 -234t-233 -155t-287.5 -57q-205 0 -374 97t-265.5 265.5t-96.5 372.5zM1520 719q0 192 -90 350t-247 248t-347 90q-192 0 -350.5 -90 t-249.5 -248t-91 -350q0 -143 53.5 -270.5t145.5 -219t220.5 -145t271.5 -53.5q142 0 269 53.5t218 145t144 219t53 270.5zM502 834q0 140 82.5 218t240.5 78q139 0 213 -53t105 -159q5 -14 -6 -19l-21 -6q-11 -4 -16 6q-30 102 -91 144t-186 42q-272 0 -272 -251v-248 q0 -121 69 -187.5t203 -66.5q120 0 185.5 47t95.5 151q3 8 6 9.5t12 -0.5l17 -4q13 -5 8 -19q-63 -227 -322 -227q-155 0 -239 78.5t-84 218.5v248z" />
<glyph unicode="&#xaa;" horiz-adv-x="770" d="M141 1249q83 123 248 123q136 0 192 -64.5t56 -189.5v-252q0 -46 -14 -67.5t-54 -40.5q-70 -31 -194 -31q-136 0 -196 43.5t-60 128.5q0 92 60.5 139t199.5 47q49 0 92 -2.5t80.5 -6t38.5 -3.5v47q0 103 -45.5 155t-157.5 52q-137 0 -205 -104q-10 -10 -18 -4l-17 8 q-15 7 -6 22zM590 1030q-87 12 -213 12q-118 0 -163.5 -35.5t-45.5 -105.5q0 -131 207 -131q99 0 166 27q29 11 39 25.5t10 49.5v158z" />
<glyph unicode="&#xab;" horiz-adv-x="1114" d="M549 141q11 -11 0 -22l-17 -17q-10 -10 -22 0l-426 426q-10 10 0 19l430 430q9 12 21 0l16 -16q10 -10 0 -23l-399 -399zM1006 141q8 -11 0 -22l-19 -17q-10 -10 -22 0l-424 426q-13 10 0 19l428 430q9 11 20 0l17 -16q10 -10 0 -23l-400 -399z" />
<glyph unicode="&#xac;" horiz-adv-x="1175" d="M1022 760q14 0 14 -15v-444q0 -14 -14 -14h-27q-16 0 -16 14v406h-815q-14 0 -14 14v24q0 15 14 15h858z" />
<glyph unicode="&#xad;" horiz-adv-x="878" d="M729 571q16 0 16 -16v-23q0 -16 -16 -16h-577q-17 0 -17 16v23q0 16 17 16h577z" />
<glyph unicode="&#xae;" horiz-adv-x="1007" d="M106 1057q0 163 118 280t282 117q163 0 279 -117t116 -280q0 -164 -116 -281t-279 -117q-164 0 -282 117t-118 281zM145 1057q0 -150 106.5 -256.5t256.5 -106.5q149 0 253.5 106.5t104.5 256.5q0 149 -104.5 254.5t-253.5 105.5q-151 0 -257 -105.5t-106 -254.5z M553 1270q65 0 103 -35.5t38 -99.5q0 -52 -26 -85t-74 -42l86 -150q10 -14 -6 -14h-17q-9 0 -11 1t-5 7l-86 152h-176v-152q0 -8 -10 -8h-19q-8 0 -8 8v399q0 19 16 19h195zM379 1038h172q51 0 78.5 25t27.5 72t-27.5 73.5t-78.5 26.5h-172v-197z" />
<glyph unicode="&#xaf;" horiz-adv-x="720" d="M600 1352q14 0 14 -17v-14q0 -9 -2.5 -12.5t-11.5 -3.5h-489q-15 0 -15 16v14q0 17 15 17h489z" />
<glyph unicode="&#xb0;" horiz-adv-x="778" d="M680 1137q0 -119 -86 -205t-205 -86q-121 0 -206 85t-85 206q0 122 84.5 205t206.5 83q121 0 206 -83t85 -205zM150 1137q0 -100 69.5 -170t169.5 -70q98 0 169 71.5t71 168.5q0 99 -70 168t-170 69t-169.5 -68.5t-69.5 -168.5z" />
<glyph unicode="&#xb1;" horiz-adv-x="1376" d="M1155 836q16 0 16 -15v-20q0 -17 -16 -17h-438v-288q0 -17 -17 -17h-20q-16 0 -16 17v288h-443q-16 0 -16 17v20q0 15 16 15h443v297q0 16 16 16h20q17 0 17 -16v-297h438zM1155 336q16 0 16 -14v-21q0 -16 -16 -16h-934q-16 0 -16 16v21q0 14 16 14h934z" />
<glyph unicode="&#xb2;" horiz-adv-x="712" d="M82 1442l2 10q3 9 6 19t9.5 26.5t14.5 32t20.5 33.5t27.5 33.5t36 30.5t45 25t55.5 16.5t66.5 6.5q129 0 198.5 -65t69.5 -170q0 -44 -13.5 -78.5t-33.5 -56.5t-53.5 -41t-61.5 -30t-69 -25q-14 -5 -21 -7l-127 -47q-127 -47 -127 -184v-78h483q19 0 19 -14v-17 q0 -16 -19 -16h-510q-22 0 -22 20v95q0 176 158 235l126 47q10 4 40 14.5t41 15t35.5 16t35 19.5t27 22.5t23.5 29t12.5 34.5t5.5 44q0 86 -55.5 138t-161.5 52q-33 0 -62.5 -6.5t-50.5 -18t-39 -26t-30 -31t-21.5 -32.5t-15 -31t-9 -26t-5.5 -19l-1 -8q-3 -10 -7 -13 t-13 -2l-19 6q-16 3 -10 21z" />
<glyph unicode="&#xb3;" horiz-adv-x="733" d="M78 1444q34 121 106.5 176t200.5 55q116 0 182 -62.5t66 -164.5q0 -134 -107 -184q129 -58 129 -205q0 -105 -69 -167.5t-203 -62.5q-131 0 -203 56.5t-106 171.5q-4 16 8 22l20 6q15 5 21 -12q30 -105 88.5 -150.5t171.5 -45.5q107 0 165 51t58 133q0 74 -44 125 t-116 51h-159q-15 0 -15 14v17q0 9 3.5 12.5t13.5 3.5h155q70 0 105 46.5t35 113.5q0 84 -53 135t-146 51q-105 0 -167 -48.5t-91 -151.5q-6 -21 -25 -13l-14 4q-16 6 -10 23z" />
<glyph unicode="&#xb4;" horiz-adv-x="526" d="M426 1477q19 13 31 -2l12 -15q15 -12 -2 -20l-367 -223q-14 -6 -22 2l-10 12q-9 12 2 20z" />
<glyph unicode="&#xb5;" horiz-adv-x="1101" d="M952 1047q15 0 15 -15v-885q0 -47 -15 -69.5t-61 -42.5q-166 -66 -356 -66q-265 0 -345 195l3 -600q0 -15 -15 -15h-28q-13 0 -13 15v1468q0 15 15 15h26q15 0 15 -15v-667q0 -345 339 -345q180 0 330 62q31 14 40 30.5t9 45.5v874q0 15 17 15h24z" />
<glyph unicode="&#xb6;" horiz-adv-x="643" d="M467 1454q16 0 16 -14v-1608q0 -14 -16 -14h-25q-16 0 -16 14v1563h-104v-1563q0 -14 -15 -14h-22q-17 0 -17 14v1305q-69 0 -112 43t-43 112q0 74 44 118t117 44h193z" />
<glyph unicode="&#xb7;" horiz-adv-x="366" d="M188 584q23 0 31 -8t8 -33v-8q0 -24 -8 -32.5t-31 -8.5h-10q-23 0 -31 8t-8 33v8q0 25 8 33t31 8h10z" />
<glyph unicode="&#xb8;" horiz-adv-x="514" d="M227 -178q30 10 74 10q83 0 130 -39t46 -108q-1 -90 -60 -139.5t-159 -49.5q-95 0 -176 49q-14 7 -14 27v18q0 6 3 8.5t7 -1.5q72 -60 176 -60q82 0 128 40t46 110q0 53 -39.5 80.5t-109.5 27.5q-49 0 -84 -12q-12 -4 -17 2t0 20l72 195h41z" />
<glyph unicode="&#xb9;" horiz-adv-x="569" d="M424 1659q16 0 16 -17v-780q0 -16 -16 -16h-18q-17 0 -17 16v733l-315 -174q-15 -9 -23 4l-6 15q-7 14 4 22l342 191q9 6 23 6h10z" />
<glyph unicode="&#xba;" horiz-adv-x="778" d="M119 1130q0 114 69 178t199 64q132 0 201 -64t69 -178v-159q0 -115 -69 -178.5t-201 -63.5q-131 0 -199.5 63.5t-68.5 178.5v159zM606 1133q0 91 -56 141.5t-163 50.5q-105 0 -162 -51t-57 -141v-164q0 -91 57 -142t162 -51q107 0 163 50.5t56 142.5v164z" />
<glyph unicode="&#xbb;" horiz-adv-x="1114" d="M106 938q-12 14 0 23l17 16q11 11 20 0l428 -430q13 -9 0 -19l-424 -426q-14 -11 -22 0l-19 17q-8 11 0 22l400 398zM561 938q-10 13 0 23l17 16q11 11 20 0l430 -430q10 -9 0 -19l-426 -426q-12 -10 -22 0l-17 17q-11 11 0 22l398 398z" />
<glyph unicode="&#xbc;" horiz-adv-x="1581" d="M449 1470q16 0 16 -16v-780q0 -17 -16 -17h-19q-16 0 -16 17v733l-316 -176q-16 -6 -22 6l-6 14q-8 15 6 21l340 192q9 6 22 6h11zM1354 1454q22 0 10 -18l-1045 -1420q-8 -11 -13.5 -13.5t-22.5 -2.5h-21q-20 0 -8 18l1044 1420q11 16 31 16h25zM1362 813q10 0 13 -3.5 t3 -12.5v-510h119q14 0 14 -15v-14q0 -10 -3 -13t-11 -3h-119v-228q0 -14 -14 -14h-21q-14 0 -14 14v228h-424q-9 0 -11.5 2.5t-2.5 11.5v12q0 17 6 23l416 510q12 12 26 12h23zM950 287h379v461z" />
<glyph unicode="&#xbd;" horiz-adv-x="1730" d="M446 1473q17 0 17 -17v-780q0 -17 -17 -17h-18q-16 0 -16 17v733l-316 -176q-15 -8 -20 4l-8 16q-9 15 6 21l340 192q3 1 10 4t12 3h10zM1358 1454q20 0 8 -18l-1044 -1420q-11 -16 -35 -16h-21q-23 0 -8 18l1045 1420q8 11 12.5 13.5t17.5 2.5h25zM1085 594l5 17 q4 17 11.5 36t21 45t35 49t50 43.5t70.5 32.5t92 12q129 0 198.5 -65t69.5 -170q0 -44 -13.5 -78.5t-33 -56.5t-52 -40.5t-60.5 -29.5t-69 -25q-16 -5 -24 -8l-126 -47q-127 -50 -127 -184v-78h483q16 0 16 -14v-19q0 -14 -16 -14h-512q-21 0 -21 20v95q0 90 37.5 146 t118.5 87l127 49q12 4 40.5 14.5t40.5 15t35.5 15.5t34.5 19t27 22t23 29t12.5 35.5t5.5 44.5q0 86 -55.5 137t-159.5 51q-33 0 -62 -6.5t-50.5 -18t-39.5 -26t-30 -31t-21 -32.5t-14.5 -31t-9 -26.5t-5.5 -18.5l-1 -8q-5 -9 -8.5 -11.5t-12.5 -1.5l-18 4q-20 3 -13 21z" />
<glyph unicode="&#xbe;" horiz-adv-x="1667" d="M96 1257q34 122 106.5 177t198.5 55q118 0 184 -63t66 -166q0 -135 -108 -185q64 -28 97.5 -81t33.5 -124q0 -104 -70.5 -165.5t-204.5 -61.5q-129 0 -201.5 56.5t-105.5 170.5q-5 18 8 23l19 4q9 3 13 0.5t7 -12.5q31 -105 89 -150t171 -45q109 0 166.5 50t57.5 134 q0 73 -44 125t-114 52h-160q-9 0 -12.5 2.5t-3.5 11.5v16q0 15 16 15h156q70 0 105.5 46.5t35.5 114.5q0 83 -53.5 134t-145.5 51q-107 0 -168.5 -48t-89.5 -151q-8 -19 -24 -14l-17 6q-12 6 -8 22zM1446 1454q22 0 10 -18l-1044 -1420q-11 -16 -35 -16h-23q-20 0 -8 18 l1045 1420q11 16 30 16h25zM1450 813q10 0 13 -3.5t3 -12.5v-510h117q14 0 14 -15v-14q0 -10 -2.5 -13t-11.5 -3h-117v-228q0 -14 -14 -14h-20q-15 0 -15 14v228h-424q-9 0 -12.5 2.5t-3.5 11.5v12q0 17 6 23l418 510q10 12 26 12h23zM1417 287v461l-379 -461h379z" />
<glyph unicode="&#xbf;" horiz-adv-x="1114" d="M602 961q-23 0 -31 7.5t-8 30.5v11q0 24 8 32.5t31 8.5h10q23 0 31 -8t8 -33v-11q0 -23 -8 -30.5t-31 -7.5h-10zM1051 -137q-128 -338 -506 -338q-110 0 -201 33.5t-151 91t-92.5 134t-32.5 163.5q0 78 18 144t42 109.5t68.5 87.5t74.5 66.5t83 57.5q42 28 68 48t60 53 t53 66t33 79.5t14 99.5q0 9 3 11.5t11 2.5h22q17 0 17 -14q0 -46 -8 -86.5t-18.5 -71t-32.5 -61t-38.5 -49.5t-47.5 -45t-49 -38.5l-54 -37.5q-36 -24 -55.5 -38.5t-51.5 -40.5t-49.5 -47.5t-40 -54.5t-34 -66.5t-19.5 -78.5t-8 -96q0 -158 111.5 -262.5t306.5 -104.5 q332 0 450 301q5 15 21 10l24 -8q9 -3 10.5 -7t-1.5 -13z" />
<glyph unicode="&#xc0;" d="M446 1810q12 12 33 2l363 -217q8 -5 8.5 -7.5t-6.5 -10.5l-10 -12q-9 -9 -23 -2l-373 211q-16 8 -2 22zM1257 16q6 -16 -12 -16h-24q-23 0 -29 14l-199 494h-704l-199 -494q-6 -14 -31 -14h-20q-11 0 -13.5 4t1.5 12l579 1432q5 16 23 16h24q19 0 25 -14zM655 1348 q-9 27 -14 55h-2q-7 -39 -12 -55l-320 -789h668z" />
<glyph unicode="&#xc1;" d="M801 1829q19 9 30 -2l13 -15q12 -15 -4 -22l-365 -221q-15 -7 -22 2l-11 12q-13 10 2 19zM1257 16q6 -16 -12 -16h-24q-23 0 -29 14l-199 494h-704l-199 -494q-6 -14 -31 -14h-20q-11 0 -13.5 4t1.5 12l579 1432q5 16 23 16h24q19 0 25 -14zM655 1348q-9 27 -14 55h-2 q-7 -39 -12 -55l-320 -789h668z" />
<glyph unicode="&#xc2;" d="M645 1833q13 0 18.5 -2.5t16.5 -13.5l285 -236q14 -14 -9 -14h-26q-19 0 -29 10l-260 211l-262 -211q-10 -10 -27 -10h-26q-23 0 -9 14l287 236q11 11 16.5 13.5t16.5 2.5h8zM1257 16q6 -16 -12 -16h-24q-23 0 -29 14l-199 494h-704l-199 -494q-6 -14 -31 -14h-20 q-11 0 -13.5 4t1.5 12l579 1432q5 16 23 16h24q19 0 25 -14zM655 1348q-9 27 -14 55h-2q-7 -39 -12 -55l-320 -789h668z" />
<glyph unicode="&#xc3;" d="M944 1784q12 0 12 -12q0 -86 -37.5 -135.5t-111.5 -49.5q-41 0 -78 16t-65.5 38.5t-56 45t-61.5 38.5t-69 16q-51 0 -80.5 -39.5t-29.5 -102.5q0 -12 -13 -12h-18q-8 0 -10 2.5t-2 9.5q0 86 38.5 135.5t110.5 49.5q51 0 98 -24.5t77.5 -53.5t72.5 -53.5t84 -24.5 q53 0 79.5 39.5t26.5 104.5q0 12 13 12h20zM1257 16q6 -16 -12 -16h-24q-23 0 -29 14l-199 494h-704l-199 -494q-6 -14 -31 -14h-20q-11 0 -13.5 4t1.5 12l579 1432q5 16 23 16h24q19 0 25 -14zM655 1348q-9 27 -14 55h-2q-7 -39 -12 -55l-320 -789h668z" />
<glyph unicode="&#xc4;" d="M455 1731q20 0 26 -7t6 -26v-12q0 -21 -6 -28t-26 -7h-15q-19 0 -25.5 7.5t-6.5 27.5v12q0 19 6.5 26t25.5 7h15zM840 1731q37 0 37 -33v-12q0 -20 -9 -27.5t-28 -7.5h-11q-21 0 -27.5 7t-6.5 28v12q0 19 6.5 26t27.5 7h11zM1257 16q6 -16 -12 -16h-24q-23 0 -29 14 l-199 494h-704l-199 -494q-6 -14 -31 -14h-20q-11 0 -13.5 4t1.5 12l579 1432q5 16 23 16h24q19 0 25 -14zM655 1348q-9 27 -14 55h-2q-7 -39 -12 -55l-320 -789h668z" />
<glyph unicode="&#xc5;" d="M442 1618q0 89 54.5 140.5t148.5 51.5q89 0 141 -51.5t52 -140.5q0 -78 -40.5 -127t-113.5 -59l573 -1416q6 -16 -12 -16h-24q-23 0 -29 14l-199 494h-704l-199 -494q-6 -14 -31 -14h-20q-11 0 -13.5 4t1.5 12l571 1420q-72 9 -114 57.5t-42 124.5zM799 1618 q0 70 -41.5 112t-112.5 42q-75 0 -118.5 -41.5t-43.5 -112.5q0 -70 43.5 -111t118.5 -41q71 0 112.5 41t41.5 111zM655 1348q-9 27 -14 55h-2q-7 -39 -12 -55l-320 -789h668z" />
<glyph unicode="&#xc6;" horiz-adv-x="1654" d="M1554 55q17 0 17 -16v-23q0 -16 -17 -16h-669q-17 0 -17 16v383h-577l-232 -385q-8 -14 -28 -14h-25q-20 0 -14 16l862 1422q9 16 23 16h647q16 0 16 -16v-23q0 -16 -16 -16h-596v-635h510q16 0 16 -16v-25q0 -16 -16 -16h-510v-652h626zM868 1358l-544 -905h544v905z " />
<glyph unicode="&#xc7;" horiz-adv-x="1296" d="M1202 365q15 -5 10 -23q-52 -185 -175 -277.5t-363 -93.5l-53 -149q30 10 71 10q83 0 130.5 -39t47.5 -108q-1 -90 -60 -139.5t-159 -49.5t-176 49q-16 8 -16 27v18q0 16 12 7q72 -60 176 -60q80 0 126 40t46 110q0 53 -38.5 80.5t-110.5 27.5q-46 0 -84 -12 q-12 -5 -16.5 2t1.5 20l62 166q-242 10 -373 142.5t-131 357.5v514q0 234 140 366t405 132q157 0 265 -42t171 -119.5t98 -199.5q6 -17 -12 -20l-22 -8q-18 -6 -23 10q-51 169 -159.5 246t-317.5 77q-237 0 -360.5 -116.5t-123.5 -323.5v-518q0 -206 125.5 -324t358.5 -118 q145 0 242 39.5t152 110.5t89 185q6 17 21 11z" />
<glyph unicode="&#xc8;" horiz-adv-x="1163" d="M418 1810q12 12 31 2l364 -217q6 -5 7 -7.5t-5 -10.5l-12 -12q-7 -10 -23 -2l-372 211q-16 8 -2 22zM1032 1454q17 0 17 -16v-23q0 -16 -17 -16h-799v-633h711q17 0 17 -16v-25q0 -16 -17 -16h-711v-654h828q16 0 16 -16v-23q0 -16 -16 -16h-871q-16 0 -16 16v1422 q0 16 16 16h842z" />
<glyph unicode="&#xc9;" horiz-adv-x="1163" d="M770 1829q21 11 31 -2l12 -15q14 -14 -2 -22l-367 -221q-14 -8 -22 2l-10 12q-10 10 2 19zM1032 1454q17 0 17 -16v-23q0 -16 -17 -16h-799v-633h711q17 0 17 -16v-25q0 -16 -17 -16h-711v-654h828q16 0 16 -16v-23q0 -16 -16 -16h-871q-16 0 -16 16v1422q0 16 16 16h842 z" />
<glyph unicode="&#xca;" horiz-adv-x="1163" d="M616 1833q17 0 35 -16l285 -236q10 -14 -10 -14h-25q-19 0 -31 10l-258 211l-262 -211q-12 -10 -26 -10h-29q-19 0 -8 14l286 236q13 12 18 14t17 2h8zM1032 1454q17 0 17 -16v-23q0 -16 -17 -16h-799v-633h711q17 0 17 -16v-25q0 -16 -17 -16h-711v-654h828q16 0 16 -16 v-23q0 -16 -16 -16h-871q-16 0 -16 16v1422q0 16 16 16h842z" />
<glyph unicode="&#xcb;" horiz-adv-x="1163" d="M424 1731q21 0 27 -6.5t6 -26.5v-12q0 -21 -6 -28t-27 -7h-12q-19 0 -27 7.5t-8 27.5v12q0 18 8 25.5t27 7.5h12zM811 1731q19 0 27 -7.5t8 -25.5v-12q0 -20 -8 -27.5t-27 -7.5h-12q-21 0 -28 7t-7 28v12q0 19 7 26t28 7h12zM1032 1454q17 0 17 -16v-23q0 -16 -17 -16 h-799v-633h711q17 0 17 -16v-25q0 -16 -17 -16h-711v-654h828q16 0 16 -16v-23q0 -16 -16 -16h-871q-16 0 -16 16v1422q0 16 16 16h842z" />
<glyph unicode="&#xcc;" horiz-adv-x="407" d="M10 1810q12 12 31 2l365 -217q6 -5 7 -7.5t-5 -10.5l-11 -12q-9 -10 -22 -2l-373 211q-15 8 -4 22zM176 1438q0 16 17 16h26q17 0 17 -16v-1422q0 -16 -17 -16h-26q-17 0 -17 16v1422z" />
<glyph unicode="&#xcd;" horiz-adv-x="407" d="M360 1829q22 9 33 -2l13 -15q11 -14 -5 -22l-364 -221q-16 -8 -23 2l-12 12q-10 10 4 19zM174 1438q0 16 16 16h27q16 0 16 -16v-1422q0 -16 -16 -16h-27q-16 0 -16 16v1422z" />
<glyph unicode="&#xce;" horiz-adv-x="407" d="M207 1833q12 0 17 -2t18 -14l284 -236q14 -14 -8 -14h-26q-19 0 -29 10l-260 211l-262 -211q-10 -10 -27 -10h-27q-21 0 -10 14l287 236q18 16 35 16h8zM174 1438q0 16 16 16h27q16 0 16 -16v-1422q0 -16 -16 -16h-27q-16 0 -16 16v1422z" />
<glyph unicode="&#xcf;" horiz-adv-x="407" d="M14 1731q21 0 28 -7t7 -26v-12q0 -21 -7 -28t-28 -7h-12q-19 0 -26 7.5t-7 27.5v12q0 19 7 26t26 7h12zM401 1731q19 0 27 -7.5t8 -25.5v-12q0 -20 -8 -27.5t-27 -7.5h-10q-22 0 -29.5 7.5t-7.5 27.5v12q0 19 7.5 26t29.5 7h10zM174 1438q0 16 16 16h27q16 0 16 -16 v-1422q0 -16 -16 -16h-27q-16 0 -16 16v1422z" />
<glyph unicode="&#xd0;" horiz-adv-x="1331" d="M616 1454q283 0 438.5 -144t155.5 -397v-372q0 -253 -155.5 -397t-438.5 -144h-409q-17 0 -17 16v689h-174q-16 0 -16 14v18q0 15 16 15h174v686q0 16 17 16h409zM1151 913q0 229 -139 357.5t-396 128.5h-366v-647h420q12 0 12 -15v-18q0 -14 -12 -14h-420v-650h366 q256 0 395.5 128.5t139.5 357.5v372z" />
<glyph unicode="&#xd1;" horiz-adv-x="1404" d="M1006 1784q12 0 12 -12q0 -87 -37 -136t-113 -49q-48 0 -94 24t-76.5 53t-73 53t-85.5 24q-51 0 -80 -39.5t-29 -102.5q0 -12 -12 -12h-21q-12 0 -12 12q0 86 39.5 135.5t112.5 49.5q50 0 96.5 -24.5t76.5 -53.5t72 -53.5t84 -24.5q53 0 81 40t28 104q0 12 12 12h19z M1217 1454q16 0 16 -16v-1422q0 -16 -16 -16h-27q-14 0 -21 12l-774 1098q-29 42 -84.5 128t-81.5 122h-2q0 -42 3 -151.5t3 -170.5v-1022q0 -16 -16 -16h-27q-16 0 -16 16v1422q0 16 16 16h25q16 0 21 -10l751 -1067q34 -49 98 -144.5t93 -136.5h4q0 48 -4 169.5t-4 189.5 v985q0 14 16 14h27z" />
<glyph unicode="&#xd2;" horiz-adv-x="1347" d="M481 1831q12 12 31 2l365 -217q11 -8 2 -19l-11 -12q-9 -9 -24 -2l-373 211q-17 8 -2 23zM129 983q0 235 141 367.5t406 132.5q261 0 402 -132.5t141 -367.5v-512q0 -235 -141 -367.5t-402 -132.5q-265 0 -406 132.5t-141 367.5v512zM1157 981q0 210 -124.5 328 t-356.5 118q-235 0 -361.5 -118t-126.5 -328v-508q0 -210 126.5 -328t361.5 -118q232 0 356.5 118t124.5 328v508z" />
<glyph unicode="&#xd3;" horiz-adv-x="1347" d="M834 1849q20 10 30 -2l13 -14q14 -14 -3 -23l-364 -221q-17 -9 -25 2l-10 13q-9 9 2 18zM129 983q0 235 141 367.5t406 132.5q261 0 402 -132.5t141 -367.5v-512q0 -235 -141 -367.5t-402 -132.5q-265 0 -406 132.5t-141 367.5v512zM1157 981q0 210 -124.5 328 t-356.5 118q-235 0 -361.5 -118t-126.5 -328v-508q0 -210 126.5 -328t361.5 -118q232 0 356.5 118t124.5 328v508z" />
<glyph unicode="&#xd4;" horiz-adv-x="1347" d="M680 1853q17 0 35 -16l284 -235q11 -15 -10 -15h-24q-19 0 -31 10l-258 211l-262 -211q-12 -10 -27 -10h-27q-21 0 -10 15l287 235q13 12 18 14t17 2h8zM129 983q0 235 141 367.5t406 132.5q261 0 402 -132.5t141 -367.5v-512q0 -235 -141 -367.5t-402 -132.5 q-265 0 -406 132.5t-141 367.5v512zM1157 981q0 210 -124.5 328t-356.5 118q-235 0 -361.5 -118t-126.5 -328v-508q0 -210 126.5 -328t361.5 -118q232 0 356.5 118t124.5 328v508z" />
<glyph unicode="&#xd5;" horiz-adv-x="1347" d="M977 1804q12 0 12 -12q0 -87 -37 -135.5t-112 -48.5q-40 0 -77 16t-65.5 38t-56.5 44.5t-62 38.5t-69 16q-51 0 -80 -39t-29 -102q0 -12 -12 -12h-20q-13 0 -13 12q0 86 39.5 135t112.5 49q41 0 79 -16t66.5 -39t56 -45.5t60.5 -38.5t68 -16q53 0 80.5 39t27.5 104 q0 12 12 12h19zM129 983q0 235 141 367.5t406 132.5q261 0 402 -132.5t141 -367.5v-512q0 -235 -141 -367.5t-402 -132.5q-265 0 -406 132.5t-141 367.5v512zM1157 981q0 210 -124.5 328t-356.5 118q-235 0 -361.5 -118t-126.5 -328v-508q0 -210 126.5 -328t361.5 -118 q232 0 356.5 118t124.5 328v508z" />
<glyph unicode="&#xd6;" horiz-adv-x="1347" d="M487 1751q21 0 27 -6.5t6 -26.5v-12q0 -21 -6 -28t-27 -7h-12q-19 0 -26 7.5t-7 27.5v12q0 19 7 26t26 7h12zM874 1751q19 0 27 -7.5t8 -25.5v-12q0 -20 -8 -27.5t-27 -7.5h-10q-22 0 -29.5 7.5t-7.5 27.5v12q0 19 7.5 26t29.5 7h10zM129 983q0 235 141 367.5t406 132.5 q261 0 402 -132.5t141 -367.5v-512q0 -235 -141 -367.5t-402 -132.5q-265 0 -406 132.5t-141 367.5v512zM1157 981q0 210 -124.5 328t-356.5 118q-235 0 -361.5 -118t-126.5 -328v-508q0 -210 126.5 -328t361.5 -118q232 0 356.5 118t124.5 328v508z" />
<glyph unicode="&#xd7;" horiz-adv-x="1030" d="M889 328q14 -14 0 -25l-12 -14q-13 -10 -25 0l-338 338l-338 -338q-11 -11 -24 0l-13 14q-14 11 0 25l336 336l-336 337q-14 14 0 25l13 14q13 11 24 0l338 -340l338 340q8 8 13 8t12 -8l12 -12q13 -14 0 -27l-338 -337z" />
<glyph unicode="&#xd8;" horiz-adv-x="1347" d="M1221 1534q10 0 6 -8l-127 -199q119 -128 119 -344v-512q0 -235 -141 -367.5t-402 -132.5q-237 0 -375 107l-102 -160q-3 -6 -5.5 -7t-13.5 -1h-33q-9 0 -4 8l121 191q-135 129 -135 362v512q0 235 141 367.5t406 132.5q249 0 387 -123l106 166q6 8 17 8h35zM1032 1309 q-127 118 -356 118q-235 0 -361.5 -118t-126.5 -328v-508q0 -194 113 -307zM334 129q127 -102 342 -102q232 0 356.5 118t124.5 328v508q0 180 -92 289z" />
<glyph unicode="&#xd9;" horiz-adv-x="1388" d="M500 1810q11 11 30 2l365 -217q6 -5 7 -7.5t-5 -10.5l-10 -12q-10 -10 -25 -2l-373 211q-16 8 -2 22zM221 492q0 -218 120 -342.5t353 -124.5t352 124t119 343v946q0 16 17 16h28q17 0 17 -16v-946q0 -244 -135.5 -383.5t-397.5 -139.5q-263 0 -397.5 139t-134.5 384v946 q0 16 16 16h27q16 0 16 -16v-946z" />
<glyph unicode="&#xda;" horiz-adv-x="1388" d="M852 1829q21 11 31 -2l12 -15q14 -14 -2 -22l-365 -221q-16 -8 -24 2l-10 12q-10 10 2 19zM221 492q0 -218 120 -342.5t353 -124.5t352 124t119 343v946q0 16 17 16h28q17 0 17 -16v-946q0 -244 -135.5 -383.5t-397.5 -139.5q-263 0 -397.5 139t-134.5 384v946 q0 16 16 16h27q16 0 16 -16v-946z" />
<glyph unicode="&#xdb;" horiz-adv-x="1388" d="M698 1833q17 0 35 -16l285 -236q10 -14 -10 -14h-25q-19 0 -31 10l-258 211l-262 -211q-13 -10 -26 -10h-27q-21 0 -10 14l286 236q13 12 18 14t17 2h8zM221 492q0 -218 120 -342.5t353 -124.5t352 124t119 343v946q0 16 17 16h28q17 0 17 -16v-946q0 -244 -135.5 -383.5 t-397.5 -139.5q-263 0 -397.5 139t-134.5 384v946q0 16 16 16h27q16 0 16 -16v-946z" />
<glyph unicode="&#xdc;" horiz-adv-x="1388" d="M506 1731q21 0 27 -6.5t6 -26.5v-12q0 -21 -6 -28t-27 -7h-12q-19 0 -26 7.5t-7 27.5v12q0 19 7 26t26 7h12zM893 1731q19 0 27 -7.5t8 -25.5v-12q0 -20 -8 -27.5t-27 -7.5h-10q-22 0 -29.5 7.5t-7.5 27.5v12q0 19 7.5 26t29.5 7h10zM221 492q0 -218 120 -342.5 t353 -124.5t352 124t119 343v946q0 16 17 16h28q17 0 17 -16v-946q0 -244 -135.5 -383.5t-397.5 -139.5q-263 0 -397.5 139t-134.5 384v946q0 16 16 16h27q16 0 16 -16v-946z" />
<glyph unicode="&#xdd;" horiz-adv-x="1255" d="M788 1829q19 10 31 -2l12 -15q14 -14 -2 -22l-366 -221q-16 -8 -23 2l-10 12q-11 11 2 19zM1214 1454q9 0 11.5 -5t-0.5 -11l-568 -836v-586q0 -16 -16 -16h-27q-16 0 -16 16v588l-563 834q-5 6 -2 11t12 5h33q22 0 31 -14l520 -774l522 774q7 14 29 14h34z" />
<glyph unicode="&#xde;" horiz-adv-x="1255" d="M723 1196q215 0 341 -123.5t126 -337.5q0 -213 -126 -334.5t-341 -121.5h-490v-263q0 -16 -16 -16h-27q-16 0 -16 16v1422q0 16 16 16h27q16 0 16 -16v-242h490zM717 336q190 0 299.5 106t109.5 293q0 188 -109.5 296t-299.5 108h-484v-803h484z" />
<glyph unicode="&#xdf;" horiz-adv-x="1118" d="M152 1081q0 211 104 333t301 122q416 0 416 -406q0 -48 -11.5 -96.5t-35.5 -96t-66.5 -85.5t-99.5 -57v-4q127 -32 195.5 -129t68.5 -246q0 -207 -105.5 -311.5t-304.5 -104.5h-215q-16 0 -16 16v23q0 16 16 16h213q172 0 262.5 92t90.5 273q0 157 -88.5 249.5 t-243.5 92.5h-223q-17 0 -17 16v21q0 16 17 16h219q76 0 133.5 30t89 78.5t46.5 100t15 102.5q0 355 -356 355q-169 0 -259.5 -106.5t-90.5 -293.5v-1065q0 -16 -17 -16h-22q-16 0 -16 16v1065z" />
<glyph unicode="&#xe0;" horiz-adv-x="1038" d="M322 1456q13 13 30 2l357 -225q13 -8 2 -21l-11 -12q-7 -7 -22 -2l-367 223q-17 8 -2 23zM121 858q111 217 397 217q115 0 194.5 -31t120.5 -88.5t57.5 -123t16.5 -150.5v-541q0 -53 -14.5 -75t-58.5 -41q-124 -54 -316 -54q-130 0 -216 19.5t-132.5 61.5t-65 96 t-18.5 133q0 166 100.5 234.5t339.5 68.5q53 0 111.5 -3.5t94 -7.5t76 -9t44.5 -5v125q0 60 -7.5 106.5t-30 92t-59 75.5t-97 48t-142.5 18q-245 0 -346 -188q-9 -13 -20 -9l-21 9q-19 6 -8 22zM852 510q-175 27 -330 27q-209 0 -294 -58t-85 -198q0 -66 15.5 -111.5 t55.5 -81t114.5 -52t187.5 -16.5q175 0 283 48q34 14 43.5 28.5t9.5 53.5v360z" />
<glyph unicode="&#xe1;" horiz-adv-x="1038" d="M670 1458q18 12 32 -2l11 -12q15 -15 -2 -23l-365 -223q-17 -6 -22 2l-13 12q-10 12 2 21zM121 858q111 217 397 217q115 0 194.5 -31t120.5 -88.5t57.5 -123t16.5 -150.5v-541q0 -53 -14.5 -75t-58.5 -41q-124 -54 -316 -54q-130 0 -216 19.5t-132.5 61.5t-65 96 t-18.5 133q0 166 100.5 234.5t339.5 68.5q53 0 111.5 -3.5t94 -7.5t76 -9t44.5 -5v125q0 60 -7.5 106.5t-30 92t-59 75.5t-97 48t-142.5 18q-245 0 -346 -188q-9 -13 -20 -9l-21 9q-19 6 -8 22zM852 510q-175 27 -330 27q-209 0 -294 -58t-85 -198q0 -66 15.5 -111.5 t55.5 -81t114.5 -52t187.5 -16.5q175 0 283 48q34 14 43.5 28.5t9.5 53.5v360z" />
<glyph unicode="&#xe2;" horiz-adv-x="1038" d="M516 1450q17 0 35 -16l285 -238q12 -12 -9 -12h-26q-19 0 -29 10l-260 211l-262 -211q-12 -10 -27 -10h-26q-23 0 -11 12l287 238q26 15 35 16h8zM121 858q111 217 397 217q115 0 194.5 -31t120.5 -88.5t57.5 -123t16.5 -150.5v-541q0 -53 -14.5 -75t-58.5 -41 q-124 -54 -316 -54q-130 0 -216 19.5t-132.5 61.5t-65 96t-18.5 133q0 166 100.5 234.5t339.5 68.5q53 0 111.5 -3.5t94 -7.5t76 -9t44.5 -5v125q0 60 -7.5 106.5t-30 92t-59 75.5t-97 48t-142.5 18q-245 0 -346 -188q-9 -13 -20 -9l-21 9q-19 6 -8 22zM852 510 q-175 27 -330 27q-209 0 -294 -58t-85 -198q0 -66 15.5 -111.5t55.5 -81t114.5 -52t187.5 -16.5q175 0 283 48q34 14 43.5 28.5t9.5 53.5v360z" />
<glyph unicode="&#xe3;" horiz-adv-x="1038" d="M813 1415q12 0 12 -12q0 -87 -37 -135.5t-112 -48.5q-40 0 -77 16t-65.5 38.5t-56.5 44.5t-62 38t-69 16q-51 0 -79.5 -38.5t-28.5 -102.5q0 -12 -13 -12h-20q-12 0 -12 12q0 86 39 135t112 49q41 0 79 -16t66.5 -38.5t56 -44.5t60.5 -38t68 -16q54 0 81 38.5t27 102.5 q0 12 13 12h18zM121 858q111 217 397 217q115 0 194.5 -31t120.5 -88.5t57.5 -123t16.5 -150.5v-541q0 -53 -14.5 -75t-58.5 -41q-124 -54 -316 -54q-130 0 -216 19.5t-132.5 61.5t-65 96t-18.5 133q0 166 100.5 234.5t339.5 68.5q53 0 111.5 -3.5t94 -7.5t76 -9t44.5 -5 v125q0 60 -7.5 106.5t-30 92t-59 75.5t-97 48t-142.5 18q-245 0 -346 -188q-9 -13 -20 -9l-21 9q-19 6 -8 22zM852 510q-175 27 -330 27q-209 0 -294 -58t-85 -198q0 -66 15.5 -111.5t55.5 -81t114.5 -52t187.5 -16.5q175 0 283 48q34 14 43.5 28.5t9.5 53.5v360z" />
<glyph unicode="&#xe4;" horiz-adv-x="1038" d="M324 1370q21 0 27.5 -7t6.5 -26v-14q0 -21 -6 -27t-28 -6h-13q-19 0 -25.5 6.5t-6.5 26.5v14q0 19 6.5 26t25.5 7h13zM711 1370q19 0 26.5 -7t7.5 -26v-14q0 -20 -7.5 -26.5t-26.5 -6.5h-11q-22 0 -29 6.5t-7 26.5v14q0 19 7.5 26t28.5 7h11zM121 858q111 217 397 217 q115 0 194.5 -31t120.5 -88.5t57.5 -123t16.5 -150.5v-541q0 -53 -14.5 -75t-58.5 -41q-124 -54 -316 -54q-130 0 -216 19.5t-132.5 61.5t-65 96t-18.5 133q0 166 100.5 234.5t339.5 68.5q53 0 111.5 -3.5t94 -7.5t76 -9t44.5 -5v125q0 60 -7.5 106.5t-30 92t-59 75.5 t-97 48t-142.5 18q-245 0 -346 -188q-9 -13 -20 -9l-21 9q-19 6 -8 22zM852 510q-175 27 -330 27q-209 0 -294 -58t-85 -198q0 -66 15.5 -111.5t55.5 -81t114.5 -52t187.5 -16.5q175 0 283 48q34 14 43.5 28.5t9.5 53.5v360z" />
<glyph unicode="&#xe5;" horiz-adv-x="1038" d="M319 1397q0 87 53 137.5t144 50.5q89 0 140 -50t51 -138t-51 -138.5t-140 -50.5q-91 0 -144 50.5t-53 138.5zM670 1397q0 69 -41 110t-113 41q-73 0 -116.5 -41t-43.5 -110q0 -71 43.5 -112.5t116.5 -41.5q72 0 113 41.5t41 112.5zM121 858q111 217 397 217 q115 0 194.5 -31t120.5 -88.5t57.5 -123t16.5 -150.5v-541q0 -53 -14.5 -75t-58.5 -41q-124 -54 -316 -54q-130 0 -216 19.5t-132.5 61.5t-65 96t-18.5 133q0 166 100.5 234.5t339.5 68.5q53 0 111.5 -3.5t94 -7.5t76 -9t44.5 -5v125q0 60 -7.5 106.5t-30 92t-59 75.5 t-97 48t-142.5 18q-245 0 -346 -188q-9 -13 -20 -9l-21 9q-19 6 -8 22zM852 510q-175 27 -330 27q-209 0 -294 -58t-85 -198q0 -66 15.5 -111.5t55.5 -81t114.5 -52t187.5 -16.5q175 0 283 48q34 14 43.5 28.5t9.5 53.5v360z" />
<glyph unicode="&#xe6;" horiz-adv-x="1595" d="M123 860q56 107 140 161t210 54q146 0 217.5 -59.5t95.5 -167.5q68 227 340 227q373 0 373 -418v-106q0 -35 -37 -35h-651v-156q0 -340 307 -340q68 0 118.5 14.5t87 46.5t60 65.5t52.5 89.5q9 14 24 8l19 -11q14 -8 4 -22q-30 -59 -56.5 -96.5t-68 -73.5t-101 -53 t-139.5 -17q-231 0 -311 160q-80 -160 -334 -160q-113 0 -188.5 19t-118.5 58.5t-60.5 93.5t-17.5 132q0 168 89 238t304 70q89 0 273 -27v135q0 61 -5 105.5t-22.5 90t-47.5 74t-82.5 46.5t-125.5 18q-106 0 -177.5 -47t-119.5 -139q-10 -13 -20 -9l-23 9q-16 6 -8 22z M1444 659q0 177 -74.5 272t-243.5 95t-242 -94.5t-73 -272.5v-96h633v96zM754 506q-146 26 -279 26q-183 0 -256.5 -58.5t-73.5 -199.5q0 -65 14.5 -110t50.5 -78.5t100 -49.5t159 -16q252 0 305 170q-20 67 -20 162v154z" />
<glyph unicode="&#xe7;" horiz-adv-x="1048" d="M958 293q16 -6 11 -21q-42 -147 -141 -222t-267 -79l-55 -149q30 10 74 10q83 0 130 -39t46 -108q-1 -90 -60 -139.5t-159 -49.5q-96 0 -177 49q-14 7 -14 27v18q0 6 3 8.5t7 -1.5q72 -60 176 -60q82 0 128.5 40t46.5 110q0 53 -39.5 80.5t-110.5 27.5q-49 0 -84 -12 q-12 -4 -16.5 2t0.5 20l61 166q-196 6 -300.5 109t-104.5 285v319q0 185 109.5 288t320.5 103q183 0 280.5 -71t137.5 -211q5 -17 -9 -23l-22 -6q-15 -7 -21 8q-39 133 -123 192.5t-247 59.5q-181 0 -276 -90t-95 -248v-324q0 -158 96 -248.5t275 -90.5q158 0 247.5 64.5 t126.5 201.5q5 16 21 10z" />
<glyph unicode="&#xe8;" horiz-adv-x="1075" d="M354 1458q12 12 31 2l356 -225q13 -8 2 -21l-10 -12q-7 -7 -22 -2l-367 223q-17 9 -2 21zM109 651q0 199 111.5 311.5t324.5 112.5q212 0 324 -113.5t112 -308.5v-102q0 -35 -37 -35h-780v-151q0 -160 93 -252.5t273 -92.5q272 0 388 220q10 15 24 6l19 -10q14 -7 4 -21 q-125 -244 -435 -244q-209 0 -315 105t-106 293v282zM924 655q0 172 -96 271.5t-283 99.5t-284 -99.5t-97 -271.5v-92h760v92z" />
<glyph unicode="&#xe9;" horiz-adv-x="1075" d="M702 1460q21 10 33 -2l10 -14q15 -12 -2 -21l-364 -223q-18 -6 -23 2l-12 12q-10 12 2 21zM109 651q0 199 111.5 311.5t324.5 112.5q212 0 324 -113.5t112 -308.5v-102q0 -35 -37 -35h-780v-151q0 -160 93 -252.5t273 -92.5q272 0 388 220q10 15 24 6l19 -10q14 -7 4 -21 q-125 -244 -435 -244q-209 0 -315 105t-106 293v282zM924 655q0 172 -96 271.5t-283 99.5t-284 -99.5t-97 -271.5v-92h760v92z" />
<glyph unicode="&#xea;" horiz-adv-x="1075" d="M549 1442q16 0 33 -17l280 -229q10 -14 -10 -14h-25q-18 0 -28 10l-254 207l-256 -207q-12 -10 -27 -10h-26q-23 0 -9 14l281 229q17 17 33 17h8zM109 651q0 199 111.5 311.5t324.5 112.5q212 0 324 -113.5t112 -308.5v-102q0 -35 -37 -35h-780v-151q0 -160 93 -252.5 t273 -92.5q272 0 388 220q10 15 24 6l19 -10q14 -7 4 -21q-125 -244 -435 -244q-209 0 -315 105t-106 293v282zM924 655q0 172 -96 271.5t-283 99.5t-284 -99.5t-97 -271.5v-92h760v92z" />
<glyph unicode="&#xeb;" horiz-adv-x="1075" d="M356 1372q21 0 28 -7t7 -26v-14q0 -20 -6.5 -26.5t-28.5 -6.5h-12q-19 0 -26 6.5t-7 26.5v14q0 19 7 26t26 7h12zM743 1372q19 0 27 -7.5t8 -25.5v-14q0 -20 -7.5 -26.5t-27.5 -6.5h-10q-22 0 -29.5 6.5t-7.5 26.5v14q0 19 7.5 26t29.5 7h10zM109 651q0 199 111.5 311.5 t324.5 112.5q212 0 324 -113.5t112 -308.5v-102q0 -35 -37 -35h-780v-151q0 -160 93 -252.5t273 -92.5q272 0 388 220q10 15 24 6l19 -10q14 -7 4 -21q-125 -244 -435 -244q-209 0 -315 105t-106 293v282zM924 655q0 172 -96 271.5t-283 99.5t-284 -99.5t-97 -271.5v-92h760 v92z" />
<glyph unicode="&#xec;" horiz-adv-x="354" d="M35 1446q10 12 28 4l277 -217q15 -9 4 -23l-8 -10q-7 -10 -23 0l-286 211q-10 4 -11 8t7 13zM190 1047q17 0 17 -15v-1018q0 -14 -17 -14h-24q-14 0 -14 14v1018q0 15 14 15h24z" />
<glyph unicode="&#xed;" horiz-adv-x="354" d="M295 1450q19 8 29 -4l12 -14q8 -9 7 -13t-11 -8l-287 -213q-17 -7 -22 2l-9 10q-12 12 4 21zM190 1047q15 0 15 -15v-1018q0 -14 -15 -14h-26q-14 0 -14 14v1018q0 15 14 15h26z" />
<glyph unicode="&#xee;" horiz-adv-x="354" d="M420 1212q5 -4 2.5 -8t-12.5 -4h-21q-23 0 -29 8l-184 195l-184 -195q-1 -2 -3 -4t-3.5 -2.5t-4 -1t-4 -0.5h-6h-6.5h-24q-17 0 -9 12l209 220q14 14 31 14h8q13 0 18 -2t15 -12zM190 1047q15 0 15 -15v-1018q0 -14 -15 -14h-26q-14 0 -14 14v1018q0 15 14 15h26z" />
<glyph unicode="&#xef;" horiz-adv-x="354" d="M47 1407q20 0 26.5 -7t6.5 -28v-12q0 -20 -6.5 -26.5t-26.5 -6.5h-14q-19 0 -26 6.5t-7 26.5v12q0 20 7 27.5t26 7.5h14zM317 1407q21 0 29 -7.5t8 -27.5v-12q0 -20 -8 -26.5t-29 -6.5h-10q-22 0 -28.5 6.5t-6.5 26.5v12q0 21 7 28t28 7h10zM190 1047q15 0 15 -15v-1018 q0 -14 -15 -14h-26q-14 0 -14 14v1018q0 15 14 15h26z" />
<glyph unicode="&#xf0;" horiz-adv-x="1124" d="M891 1528q8 10 18 0l13 -10q10 -8 2 -19l-125 -127q186 -166 186 -551v-469q0 -181 -111.5 -281t-324.5 -100q-214 0 -325 100t-111 281v299q0 181 110.5 282t319.5 101q302 0 389 -200q-3 351 -170 497l-176 -182q-6 -6 -9.5 -6t-9.5 6l-12 10q-9 9 -2 19l174 178 q-150 108 -436 108q-17 0 -17 17v20q0 15 17 15q313 0 471 -119zM930 651q0 158 -98 245t-283 87t-283 -87.5t-98 -244.5v-299q0 -157 97.5 -243t283.5 -86q184 0 282.5 86t98.5 243v299z" />
<glyph unicode="&#xf1;" horiz-adv-x="1116" d="M856 1417q12 0 12 -12q0 -86 -37.5 -135t-111.5 -49q-41 0 -78 16t-65.5 38.5t-56 44.5t-61.5 38t-69 16q-53 0 -81.5 -39t-28.5 -102q0 -12 -13 -12h-18q-8 0 -10 2.5t-2 9.5q0 86 38.5 135t110.5 49q51 0 98 -24t77.5 -52.5t72.5 -52.5t84 -24q53 0 79.5 38t26.5 103 q0 12 13 12h20zM221 1010q159 65 365 65q198 0 293.5 -101t95.5 -290v-670q0 -14 -14 -14h-25q-16 0 -16 14v666q0 171 -82 257.5t-256 86.5q-198 0 -332 -61q-31 -12 -40 -28.5t-9 -45.5v-875q0 -14 -15 -14h-26q-15 0 -15 14v885q0 45 15.5 68t60.5 43z" />
<glyph unicode="&#xf2;" horiz-adv-x="1097" d="M358 1456q12 15 31 2l356 -225q12 -9 3 -21l-11 -12q-7 -8 -24 -2l-365 223q-17 8 -2 23zM117 727q0 160 118 254t314 94q197 0 314.5 -93.5t117.5 -254.5v-408q0 -161 -117.5 -254.5t-314.5 -93.5q-196 0 -314 94t-118 254v408zM926 729q0 134 -103.5 214.5t-273.5 80.5 q-169 0 -273 -80.5t-104 -214.5v-412q0 -134 104 -214t273 -80q170 0 273.5 80t103.5 214v412z" />
<glyph unicode="&#xf3;" horiz-adv-x="1097" d="M707 1458q17 11 30 -2l13 -12q15 -15 -2 -23l-367 -223q-16 -5 -23 2l-10 12q-11 13 2 21zM117 727q0 160 118 254t314 94q197 0 314.5 -93.5t117.5 -254.5v-408q0 -161 -117.5 -254.5t-314.5 -93.5q-196 0 -314 94t-118 254v408zM926 729q0 134 -103.5 214.5 t-273.5 80.5q-169 0 -273 -80.5t-104 -214.5v-412q0 -134 104 -214t273 -80q170 0 273.5 80t103.5 214v412z" />
<glyph unicode="&#xf4;" horiz-adv-x="1097" d="M553 1440q16 0 33 -15l278 -231q6 -4 4 -9t-12 -5h-27q-15 0 -28 10l-252 207l-256 -207q-13 -10 -27 -10h-26q-11 0 -13.5 5t2.5 9l281 231q19 15 33 15h10zM117 727q0 160 118 254t314 94q197 0 314.5 -93.5t117.5 -254.5v-408q0 -161 -117.5 -254.5t-314.5 -93.5 q-196 0 -314 94t-118 254v408zM926 729q0 134 -103.5 214.5t-273.5 80.5q-169 0 -273 -80.5t-104 -214.5v-412q0 -134 104 -214t273 -80q170 0 273.5 80t103.5 214v412z" />
<glyph unicode="&#xf5;" horiz-adv-x="1097" d="M850 1415q12 0 12 -12q0 -86 -37.5 -135t-111.5 -49q-41 0 -78 16t-65.5 38.5t-56 44.5t-61.5 38t-69 16q-52 0 -81.5 -38.5t-29.5 -102.5q0 -12 -10 -12h-20q-13 0 -13 12q0 86 39.5 135t112.5 49q41 0 79 -16t66.5 -38.5t56 -44.5t60.5 -38t68 -16q54 0 81 38.5 t27 102.5q0 12 12 12h19zM117 727q0 160 118 254t314 94q197 0 314.5 -93.5t117.5 -254.5v-408q0 -161 -117.5 -254.5t-314.5 -93.5q-196 0 -314 94t-118 254v408zM926 729q0 134 -103.5 214.5t-273.5 80.5q-169 0 -273 -80.5t-104 -214.5v-412q0 -134 104 -214t273 -80 q170 0 273.5 80t103.5 214v412z" />
<glyph unicode="&#xf6;" horiz-adv-x="1097" d="M360 1370q21 0 27 -6.5t6 -26.5v-14q0 -21 -6 -27t-27 -6h-12q-20 0 -27.5 6.5t-7.5 26.5v14q0 18 8 25.5t27 7.5h12zM748 1370q19 0 26.5 -7t7.5 -26v-14q0 -20 -7.5 -26.5t-26.5 -6.5h-13q-22 0 -28.5 6.5t-6.5 26.5v14q0 19 7 26t28 7h13zM117 727q0 160 118 254 t314 94q197 0 314.5 -93.5t117.5 -254.5v-408q0 -161 -117.5 -254.5t-314.5 -93.5q-196 0 -314 94t-118 254v408zM926 729q0 134 -103.5 214.5t-273.5 80.5q-169 0 -273 -80.5t-104 -214.5v-412q0 -134 104 -214t273 -80q170 0 273.5 80t103.5 214v412z" />
<glyph unicode="&#xf7;" horiz-adv-x="1226" d="M618 1128q23 0 31 -8t8 -33v-8q0 -24 -8 -32.5t-31 -8.5h-10q-23 0 -31 8t-8 33v8q0 25 8 33t31 8h10zM1079 692q17 0 17 -16v-23q0 -16 -17 -16h-932q-16 0 -16 16v23q0 16 16 16h932zM618 295q23 0 31 -8.5t8 -32.5v-8q0 -25 -8 -33t-31 -8h-10q-23 0 -31 8t-8 33v8 q0 24 8 32.5t31 8.5h10z" />
<glyph unicode="&#xf8;" horiz-adv-x="1097" d="M952 1130q5 0 2 -8l-90 -141q117 -91 117 -254v-408q0 -161 -117.5 -254.5t-314.5 -93.5q-167 0 -279 70l-67 -104q-6 -9 -17 -9h-28q-8 0 -4 9l79 129q-116 90 -116 253v408q0 160 118 254t314 94q173 0 280 -69l78 118q4 6 15 6h30zM801 958q-101 66 -252 66 q-169 0 -273 -80.5t-104 -214.5v-412q0 -125 96 -202zM297 88q100 -65 252 -65q170 0 273.5 80t103.5 214v412q0 122 -95 201z" />
<glyph unicode="&#xf9;" horiz-adv-x="1116" d="M367 1456q11 14 30 2l357 -225q12 -9 2 -21l-11 -12q-7 -8 -24 -2l-365 223q-17 8 -2 23zM956 1047q15 0 15 -15v-882q0 -47 -15.5 -70t-60.5 -43q-162 -66 -365 -66q-198 0 -293.5 101t-95.5 290v670q0 15 15 15h26q15 0 15 -15v-665q0 -171 82.5 -257.5t257.5 -86.5 q187 0 329 59q31 14 40 31.5t9 46.5v872q0 15 17 15h24z" />
<glyph unicode="&#xfa;" horiz-adv-x="1116" d="M715 1458q17 11 30 -2l13 -12q15 -15 -2 -23l-367 -223q-15 -5 -22 2l-11 12q-11 13 2 21zM956 1047q15 0 15 -15v-882q0 -47 -15.5 -70t-60.5 -43q-162 -66 -365 -66q-198 0 -293.5 101t-95.5 290v670q0 15 15 15h26q15 0 15 -15v-665q0 -171 82.5 -257.5t257.5 -86.5 q187 0 329 59q31 14 40 31.5t9 46.5v872q0 15 17 15h24z" />
<glyph unicode="&#xfb;" horiz-adv-x="1116" d="M561 1450q11 0 16.5 -2.5t16.5 -13.5l287 -238q12 -12 -11 -12h-26q-16 0 -29 10l-258 211l-262 -211q-13 -10 -27 -10h-28q-7 0 -10.5 1.5t-3 4.5t4.5 6l287 238q18 16 33 16h10zM956 1047q15 0 15 -15v-882q0 -47 -15.5 -70t-60.5 -43q-162 -66 -365 -66 q-198 0 -293.5 101t-95.5 290v670q0 15 15 15h26q15 0 15 -15v-665q0 -171 82.5 -257.5t257.5 -86.5q187 0 329 59q31 14 40 31.5t9 46.5v872q0 15 17 15h24z" />
<glyph unicode="&#xfc;" horiz-adv-x="1116" d="M369 1370q21 0 26.5 -6.5t5.5 -26.5v-14q0 -21 -5.5 -27t-26.5 -6h-13q-19 0 -26.5 6.5t-7.5 26.5v14q0 19 7.5 26t26.5 7h13zM756 1370q19 0 27 -7.5t8 -25.5v-14q0 -20 -7.5 -26.5t-27.5 -6.5h-13q-21 0 -27.5 6t-6.5 27v14q0 19 6.5 26t27.5 7h13zM956 1047 q15 0 15 -15v-882q0 -47 -15.5 -70t-60.5 -43q-162 -66 -365 -66q-198 0 -293.5 101t-95.5 290v670q0 15 15 15h26q15 0 15 -15v-665q0 -171 82.5 -257.5t257.5 -86.5q187 0 329 59q31 14 40 31.5t9 46.5v872q0 15 17 15h24z" />
<glyph unicode="&#xfd;" horiz-adv-x="1122" d="M715 1458q17 11 30 -2l13 -12q15 -15 -2 -23l-367 -223q-15 -5 -22 2l-11 12q-11 13 2 21zM956 1047q15 0 15 -15v-1116q0 -442 -422 -442q-278 0 -393 239q-10 15 6 25l18 8q14 9 25 -6q48 -102 129 -157.5t215 -55.5q366 0 366 387v141q-66 -25 -95.5 -35.5t-115 -26.5 t-174.5 -16q-198 0 -293.5 102t-95.5 292v661q0 15 15 15h26q15 0 15 -15v-659q0 -171 82.5 -257.5t257.5 -86.5q82 0 164.5 16t121 29t92.5 35v923q0 15 17 15h24z" />
<glyph unicode="&#xfe;" horiz-adv-x="1095" d="M152 1499q0 17 14 17h27q14 0 14 -17v-524q158 84 356 84q418 0 418 -406v-291q0 -393 -389 -393q-205 0 -385 99v-504q0 -15 -14 -15h-27q-14 0 -14 15v1935zM926 651q0 178 -91 267.5t-278 89.5q-192 0 -350 -88v-795q35 -21 80.5 -41t131.5 -42t169 -22q338 0 338 342 v289z" />
<glyph unicode="&#xff;" horiz-adv-x="1122" d="M369 1370q21 0 26.5 -6.5t5.5 -26.5v-14q0 -21 -5.5 -27t-26.5 -6h-13q-19 0 -26.5 6.5t-7.5 26.5v14q0 19 7.5 26t26.5 7h13zM756 1370q19 0 27 -7.5t8 -25.5v-14q0 -20 -7.5 -26.5t-27.5 -6.5h-13q-21 0 -27.5 6t-6.5 27v14q0 19 6.5 26t27.5 7h13zM956 1047 q15 0 15 -15v-1116q0 -442 -422 -442q-278 0 -393 239q-10 15 6 25l18 8q14 9 25 -6q48 -102 129 -157.5t215 -55.5q366 0 366 387v141q-66 -25 -95.5 -35.5t-115 -26.5t-174.5 -16q-198 0 -293.5 102t-95.5 292v661q0 15 15 15h26q15 0 15 -15v-659q0 -171 82.5 -257.5 t257.5 -86.5q82 0 164.5 16t121 29t92.5 35v923q0 15 17 15h24z" />
<glyph unicode="&#x152;" horiz-adv-x="1705" d="M1604 55q16 0 16 -16v-23q0 -16 -16 -16h-703q-114 -31 -225 -31q-265 0 -406 133.5t-141 368.5v512q0 235 141 368.5t406 133.5q114 0 223 -31h676q16 0 16 -16v-23q0 -16 -16 -16h-633v-635h545q16 0 16 -16v-25q0 -16 -16 -16h-545v-652h662zM188 473 q0 -210 126.5 -329t361.5 -119q110 0 205 28v1346q-108 31 -205 31q-235 0 -361.5 -119.5t-126.5 -329.5v-508z" />
<glyph unicode="&#x153;" horiz-adv-x="1652" d="M844 844q69 231 340 231q372 0 372 -418v-106q0 -35 -36 -35h-652v-156q0 -340 308 -340q68 0 118 14.5t87 46.5t60 65t54 90q8 16 23 8l18 -11q13 -8 6 -22q-31 -60 -57.5 -97t-68.5 -73t-101 -53t-139 -17q-269 0 -334 222q-34 -104 -126 -163t-220 -59 q-168 0 -271.5 93.5t-103.5 252.5v412q0 159 103.5 252.5t271.5 93.5q130 0 223.5 -61.5t124.5 -169.5zM1501 659q0 177 -74 272t-243 95t-242.5 -95t-73.5 -272v-96h633v96zM811 731q0 133 -87.5 213t-227.5 80q-141 0 -229.5 -80t-88.5 -213v-414q0 -135 88.5 -214.5 t229.5 -79.5q140 0 227.5 79.5t87.5 214.5v414z" />
<glyph unicode="&#x178;" horiz-adv-x="1255" d="M442 1731q21 0 27 -6.5t6 -26.5v-12q0 -21 -6 -28t-27 -7h-12q-20 0 -27.5 7.5t-7.5 27.5v12q0 19 7.5 26t27.5 7h12zM827 1731q20 0 28.5 -7t8.5 -26v-12q0 -20 -8 -27.5t-29 -7.5h-10q-21 0 -28 7t-7 28v12q0 19 7 26t28 7h10zM1214 1454q9 0 11.5 -5t-0.5 -11 l-568 -836v-586q0 -16 -16 -16h-27q-16 0 -16 16v588l-563 834q-5 6 -2 11t12 5h33q22 0 31 -14l520 -774l522 774q7 14 29 14h34z" />
<glyph unicode="&#x2c6;" horiz-adv-x="745" d="M377 1468q17 0 35 -16l284 -238q12 -12 -10 -12h-24q-19 0 -31 10l-258 211l-262 -211q-13 -10 -27 -10h-27q-22 0 -10 12l287 238q26 15 35 16h8z" />
<glyph unicode="&#x2dc;" horiz-adv-x="624" d="M616 1434q13 0 13 -13q0 -86 -38 -135t-112 -49q-41 0 -77.5 16t-65 38.5t-56.5 45t-61.5 38.5t-68.5 16q-51 0 -81 -39.5t-30 -102.5q0 -12 -10 -12h-21q-12 0 -12 12q0 86 39.5 135.5t111.5 49.5q41 0 79 -16t66.5 -38.5t56 -45t60.5 -38.5t68 -16q54 0 81.5 38.5 t27.5 102.5q0 13 12 13h18z" />
<glyph unicode="&#x2000;" horiz-adv-x="926" />
<glyph unicode="&#x2001;" horiz-adv-x="1853" />
<glyph unicode="&#x2002;" horiz-adv-x="926" />
<glyph unicode="&#x2003;" horiz-adv-x="1853" />
<glyph unicode="&#x2004;" horiz-adv-x="617" />
<glyph unicode="&#x2005;" horiz-adv-x="463" />
<glyph unicode="&#x2006;" horiz-adv-x="308" />
<glyph unicode="&#x2007;" horiz-adv-x="308" />
<glyph unicode="&#x2008;" horiz-adv-x="231" />
<glyph unicode="&#x2009;" horiz-adv-x="370" />
<glyph unicode="&#x200a;" horiz-adv-x="102" />
<glyph unicode="&#x2010;" horiz-adv-x="878" d="M729 571q16 0 16 -16v-23q0 -16 -16 -16h-577q-17 0 -17 16v23q0 16 17 16h577z" />
<glyph unicode="&#x2011;" horiz-adv-x="878" d="M729 571q16 0 16 -16v-23q0 -16 -16 -16h-577q-17 0 -17 16v23q0 16 17 16h577z" />
<glyph unicode="&#x2012;" horiz-adv-x="878" d="M729 571q16 0 16 -16v-23q0 -16 -16 -16h-577q-17 0 -17 16v23q0 16 17 16h577z" />
<glyph unicode="&#x2013;" horiz-adv-x="1191" d="M1042 575q17 0 17 -16v-22q0 -17 -17 -17h-892q-17 0 -17 17v22q0 16 17 16h892z" />
<glyph unicode="&#x2014;" horiz-adv-x="1601" d="M1452 575q16 0 16 -16v-22q0 -17 -16 -17h-1302q-17 0 -17 17v22q0 16 17 16h1302z" />
<glyph unicode="&#x2018;" horiz-adv-x="360" d="M229 1440q3 14 19 14h10q15 0 12 -14l-84 -307q-3 -13 -8.5 -18t-17.5 -5h-23q-25 0 -18 23z" />
<glyph unicode="&#x2019;" horiz-adv-x="354" d="M162 1126q-3 -16 -19 -16h-10q-15 0 -12 14l84 308q3 13 8.5 17.5t17.5 4.5h23q24 0 18 -22z" />
<glyph unicode="&#x201a;" horiz-adv-x="288" d="M160 -209q0 -14 -15 -14h-12q-9 0 -12.5 2.5t-3.5 11.5v420q0 14 16 14h27q16 0 16 -14z" />
<glyph unicode="&#x201c;" horiz-adv-x="555" d="M229 1440q3 14 19 14h10q15 0 12 -14l-84 -307q-3 -13 -8.5 -18t-17.5 -5h-23q-25 0 -18 23zM422 1440q6 14 20 14h11q16 0 10 -14l-82 -307q-5 -23 -27 -23h-22q-29 0 -19 23z" />
<glyph unicode="&#x201d;" horiz-adv-x="548" d="M162 1126q-3 -16 -19 -16h-10q-15 0 -12 14l84 308q3 13 8.5 17.5t17.5 4.5h23q24 0 18 -22zM356 1126q-5 -16 -18 -16h-12q-14 0 -11 14l84 308q3 13 9 17.5t18 4.5h23q24 0 16 -22z" />
<glyph unicode="&#x201e;" horiz-adv-x="499" d="M82 -233q-6 -15 -21 -15h-10q-8 0 -10.5 2.5t-1.5 9.5l84 310q3 13 8.5 16.5t18.5 3.5h22q27 0 18 -20zM274 -233q-6 -15 -18 -15h-10q-9 0 -11.5 2.5t-1.5 9.5l84 310q3 13 8.5 16.5t18.5 3.5h23q24 0 18 -20z" />
<glyph unicode="&#x2022;" horiz-adv-x="518" d="M260 465q-32 0 -53 21t-21 53t21 52.5t53 20.5q31 0 51.5 -20.5t20.5 -52.5t-20.5 -53t-51.5 -21z" />
<glyph unicode="&#x2026;" horiz-adv-x="1081" d="M160 82q23 0 32 -9t9 -32v-10q0 -23 -8.5 -31t-32.5 -8h-10q-24 0 -31.5 7.5t-7.5 31.5v10q0 24 8 32.5t31 8.5h10zM545 82q23 0 31 -8.5t8 -32.5v-10q0 -23 -8 -31t-31 -8h-10q-24 0 -32.5 7.5t-8.5 31.5v10q0 23 9 32t32 9h10zM928 82q23 0 32 -9t9 -32v-10 q0 -23 -8.5 -31t-32.5 -8h-8q-24 0 -32.5 7.5t-8.5 31.5v10q0 23 9 32t32 9h8z" />
<glyph unicode="&#x202f;" horiz-adv-x="370" />
<glyph unicode="&#x2039;" horiz-adv-x="659" d="M549 141q11 -11 0 -22l-17 -17q-10 -10 -22 0l-426 426q-10 10 0 19l430 430q9 12 21 0l16 -16q10 -10 0 -23l-399 -399z" />
<glyph unicode="&#x203a;" horiz-adv-x="659" d="M106 938q-12 14 0 23l17 16q11 11 20 0l428 -430q13 -9 0 -19l-424 -426q-12 -10 -22 0l-19 17q-8 11 0 22l400 398z" />
<glyph unicode="&#x205f;" horiz-adv-x="463" />
<glyph unicode="&#x20ac;" horiz-adv-x="1476" d="M309 991q0 232 140 363t405 131q198 0 316 -63t178 -189q12 -21 -9 -27l-20 -10q-19 -6 -27 10q-55 111 -158 167.5t-280 56.5q-235 0 -359 -116t-124 -321v-98h731q16 0 10 -14l-6 -21q-3 -14 -21 -14h-714v-258h641q16 0 10 -15l-6 -20q-6 -14 -21 -14h-624v-78 q2 -203 127 -319.5t356 -116.5q185 0 292 62.5t159 182.5q8 16 24 9l23 -11q16 -8 6 -26q-59 -136 -178.5 -204.5t-325.5 -68.5q-260 0 -401.5 130t-143.5 364v76h-227q-10 0 -13 3t-1 11l6 20q6 15 20 15h215v258h-155q-19 0 -13 14l6 21q3 14 19 14h143v96z" />
<glyph unicode="&#x2122;" horiz-adv-x="1286" d="M537 1423q9 0 11.5 -2.5t2.5 -11.5v-12q0 -15 -14 -15h-193v-460q0 -15 -16 -15h-11q-9 0 -11.5 3t-2.5 12v460h-197q-8 0 -10 3t-2 12v12q0 9 1.5 11.5t10.5 2.5h431zM1116 1423q9 0 11.5 -2t2.5 -10v-489q0 -9 -2.5 -12t-11.5 -3h-12q-9 0 -11.5 3t-2.5 12v313v106 q-9 -16 -27.5 -43.5t-22.5 -33.5l-149 -226q-7 -10 -19 -10h-6q-12 0 -16 8l-148 224q-8 14 -26.5 40t-26.5 39v-104v-313q0 -10 -1.5 -12.5t-10.5 -2.5h-14q-9 0 -12 3t-3 12v487q0 14 17 14h8q10 0 16 -10l221 -336l220 334q6 12 16 12h10z" />
<glyph unicode="&#x25fc;" horiz-adv-x="1044" d="M0 1044h1044v-1044h-1044v1044z" />
</font>
</defs>
</svg>
